<?xml version="1.0" encoding="utf-8"?>
<!-- Generator: Adobe Illustrator 23.0.2, SVG Export Plug-In . SVG Version: 6.00 Build 0)  -->
<svg version="1.1" id="Layer_1" xmlns="http://www.w3.org/2000/svg" xmlns:xlink="http://www.w3.org/1999/xlink" x="0px" y="0px"
	 viewBox="0 0 50 50" style="enable-background:new 0 0 50 50;" xml:space="preserve">
<style type="text/css">
	.st0{fill:none;stroke:#A6CC45;stroke-width:2;stroke-miterlimit:10;}
	.st1{fill:#231F20;}
</style>
<polyline class="st0" points="15.1,23.7 24,32 44,8.4 "/>
<path class="st1" d="M44.4,12.6L43,14.2c1.9,3.2,3,6.8,3,10.8c0,11.6-9.4,21-21,21S4,36.6,4,25S13.4,4,25,4c5.4,0,10.4,2.1,14.1,5.5
	L40.4,8C36.4,4.3,30.9,2,25,2C12.3,2,2,12.3,2,25s10.3,23,23,23s23-10.3,23-23C48,20.4,46.7,16.2,44.4,12.6z"/>
</svg>
