<?xml version="1.0" encoding="utf-8"?>
<!-- Generator: Adobe Illustrator 23.0.2, SVG Export Plug-In . SVG Version: 6.00 Build 0)  -->
<svg version="1.1" xmlns="http://www.w3.org/2000/svg" xmlns:xlink="http://www.w3.org/1999/xlink" x="0px" y="0px"
	 viewBox="0 0 512 512" style="enable-background:new 0 0 512 512;" xml:space="preserve">
<style type="text/css">
	.st0{fill:#231F20;stroke:#231F20;stroke-width:6;stroke-miterlimit:10;}
	.st1{fill:none;stroke:#231F20;stroke-width:10;stroke-miterlimit:10;}
	.st2{fill:none;}
	.st3{fill:#B7CD11;}
	.st4{fill:#231F20;}
</style>
<g id="Capa_1">
	<g>
		<path class="st0" d="M447.1,106.6c-2.3,0-4.7,0.3-7.2,0.9c-32.9,8.1-99.5,21.8-176.1,21.8s-143.2-13.7-176.1-21.8
			c-2.4-0.6-4.9-0.9-7.2-0.9c-13.8,0-23.4,10-23.4,24.4v226.9c0,15.6,10.1,34.5,23.1,43.2l150.1,100.3c6.8,4.5,15.8,7,25.3,7H272
			c9.6,0,18.6-2.5,25.3-7L447.4,401c13-8.7,23.1-27.6,23.1-43.2V130.9C470.5,116.6,460.9,106.6,447.1,106.6z M460.1,357.8
			c0,12-8.5,27.9-18.5,34.5L291.5,492.6c-4.8,3.2-12,5.1-19.6,5.1h-16.2c-7.6,0-14.8-1.8-19.6-5.1L86,392.4
			c-10-6.7-18.5-22.5-18.5-34.5V130.9c0-8.5,5.1-14,13-14c1.5,0,3,0.2,4.7,0.6c33.4,8.3,100.9,22.1,178.6,22.1
			s145.3-13.9,178.6-22.1c1.6-0.4,3.2-0.6,4.7-0.6c7.9,0,13,5.5,13,14L460.1,357.8L460.1,357.8z M95.6,168c2.3,0,4.2-1.9,4.2-4.2
			v-12.5c0-2.3-1.9-4.2-4.2-4.2c-2.3,0-4.2,1.9-4.2,4.2v12.5C91.5,166.1,93.3,168,95.6,168z M95.6,219.4c2.3,0,4.2-1.9,4.2-4.2
			v-25.7c0-2.3-1.9-4.2-4.2-4.2c-2.3,0-4.2,1.9-4.2,4.2v25.7C91.5,217.6,93.3,219.4,95.6,219.4z M95.6,322.4c2.3,0,4.2-1.9,4.2-4.2
			v-25.7c0-2.3-1.9-4.2-4.2-4.2c-2.3,0-4.2,1.9-4.2,4.2v25.7C91.5,320.5,93.3,322.4,95.6,322.4z M95.6,270.9c2.3,0,4.2-1.9,4.2-4.2
			V241c0-2.3-1.9-4.2-4.2-4.2c-2.3,0-4.2,1.9-4.2,4.2v25.7C91.5,269,93.3,270.9,95.6,270.9z M99.8,354.2v-10.3
			c0-2.3-1.9-4.2-4.2-4.2c-2.3,0-4.2,1.9-4.2,4.2v14.7l12.2,8.3c0.7,0.5,1.5,0.7,2.3,0.7c1.3,0,2.6-0.6,3.4-1.8
			c1.3-1.9,0.8-4.5-1.1-5.8L99.8,354.2z M212.4,430.8c-1.9-1.3-4.5-0.8-5.8,1.1c-1.3,1.9-0.8,4.5,1.1,5.8l20.8,14.1
			c0.7,0.5,1.5,0.7,2.3,0.7c1.3,0,2.6-0.6,3.4-1.8c1.3-1.9,0.8-4.5-1.1-5.8L212.4,430.8z M170.7,402.5c-1.9-1.3-4.5-0.8-5.8,1.1
			c-1.3,1.9-0.8,4.5,1.1,5.8l20.8,14.2c0.7,0.5,1.5,0.7,2.3,0.7c1.3,0,2.6-0.6,3.4-1.8c1.3-1.9,0.8-4.5-1.1-5.8L170.7,402.5z
			 M129.1,374.2c-1.9-1.3-4.5-0.8-5.8,1.1c-1.3,1.9-0.8,4.5,1.1,5.8l20.8,14.1c0.7,0.5,1.5,0.7,2.3,0.7c1.3,0,2.6-0.6,3.4-1.8
			c1.3-1.9,0.8-4.5-1.1-5.8L129.1,374.2z M270.7,459.6l-8.5,5l-8.2-5.5c-1.9-1.3-4.5-0.8-5.8,1.1c-1.3,1.9-0.8,4.5,1.1,5.8l12.5,8.5
			l13.1-7.6c2-1.2,2.7-3.7,1.5-5.7C275.2,459.1,272.7,458.5,270.7,459.6z M312.6,435.3l-21,12.2c-2,1.2-2.7,3.7-1.5,5.7
			c0.8,1.3,2.2,2.1,3.6,2.1c0.7,0,1.4-0.2,2.1-0.5l21-12.2c2-1.2,2.7-3.7,1.5-5.7C317.1,434.8,314.6,434.1,312.6,435.3z
			 M354.5,410.9l-21,12.2c-2,1.2-2.7,3.7-1.5,5.7c0.8,1.3,2.2,2.1,3.6,2.1c0.7,0,1.4-0.2,2.1-0.6l21-12.2c2-1.2,2.7-3.7,1.5-5.7
			C359,410.4,356.5,409.8,354.5,410.9z M396.4,386.6l-21,12.2c-2,1.2-2.7,3.7-1.5,5.7c0.8,1.3,2.2,2.1,3.6,2.1
			c0.7,0,1.4-0.2,2.1-0.6l21-12.2c2-1.2,2.7-3.7,1.5-5.7C400.9,386.1,398.4,385.4,396.4,386.6z M430.2,355c-2.3,0-4.2,1.9-4.2,4.2
			v10.1l-8.7,5.1c-2,1.2-2.7,3.7-1.5,5.7c0.8,1.3,2.2,2.1,3.6,2.1c0.7,0,1.4-0.2,2.1-0.5l12.9-7.5v-14.9
			C434.4,356.9,432.5,355,430.2,355z M430.2,299.2c-2.3,0-4.2,1.9-4.2,4.2v27.9c0,2.3,1.9,4.2,4.2,4.2s4.2-1.9,4.2-4.2v-27.9
			C434.4,301.1,432.5,299.2,430.2,299.2z M430.2,187.5c-2.3,0-4.2,1.9-4.2,4.2v27.9c0,2.3,1.9,4.2,4.2,4.2s4.2-1.9,4.2-4.2v-27.9
			C434.4,189.4,432.5,187.5,430.2,187.5z M430.2,243.4c-2.3,0-4.2,1.9-4.2,4.2v27.9c0,2.3,1.9,4.2,4.2,4.2s4.2-1.9,4.2-4.2v-27.9
			C434.4,245.2,432.5,243.4,430.2,243.4z M430.2,147.1c-2.3,0-4.2,1.9-4.2,4.2v12.5c0,2.3,1.9,4.2,4.2,4.2s4.2-1.9,4.2-4.2v-12.5
			C434.4,149,432.5,147.1,430.2,147.1z"/>
	</g>
</g>
<g id="Layer_2">
	<path class="st1" d="M397.9,121.4c5.2-16.6,4.2-35.6-7.8-50.6c-9-11-21-15-33-19c-45-14-88-26-133-41c-18-6-38-6-52,8
		c-5,6-10,13-13,21c-6,19-10,37-15,56c-3,9-5,18-7.7,26.1"/>
	<line class="st2" x1="168.1" y1="125.1" x2="196.3" y2="128.2"/>
	<line class="st2" x1="166.2" y1="124.9" x2="168.1" y2="125.1"/>
	<g>
		<polygon class="st3" points="271.8,82.7 283.2,87.2 276.3,94.9 281.4,96.9 267.4,107 272.8,109.1 258.1,120.8 261.9,110.2 
			256.5,108.1 266.4,96.5 261.4,94.6 		"/>
		<path class="st4" d="M295.3,80.4c-6-9.2-19.3-14.6-31.7-12.8c-12.5,1.8-21.7,10.3-26.1,24c0,0,0,0.1,0,0.1l-5.8-1.9l4.8,16.8
			l13-11.1l-5.5-1.8c4.5-14.1,13.7-18.2,20.6-19.2c9.8-1.4,20.6,2.8,25.1,9.8c1,1.6,3.1,2,4.7,0.9C296,84.1,296.4,82,295.3,80.4
			L295.3,80.4z"/>
		<path class="st4" d="M306.4,113.5l-4.8-16.8l-13,11.1l5.5,1.8c-4.5,14.1-13.7,18.2-20.6,19.2c-9.8,1.4-20.6-2.8-25.1-9.8
			c-1-1.6-3.1-2-4.7-0.9c-1.5,1.1-1.9,3.3-0.9,4.9c3.5,5.3,9.3,9.3,16,11.5c5,1.6,10.4,2.1,15.6,1.4c12.5-1.8,21.7-10.3,26.1-24
			c0,0,0-0.1,0-0.1L306.4,113.5L306.4,113.5L306.4,113.5z"/>
		<path class="st4" d="M314.6,134.9c0.2,0,0.4,0,0.6,0l14.6-49.8c0.2-0.8-0.1-1.7-0.8-1.9l-0.8-0.2c-0.8-0.2-1.5,0.3-1.7,1.1
			l-15,51.1C312.5,135,313.5,134.9,314.6,134.9z"/>
		<path class="st4" d="M226.2,68.2l-0.9-0.3c-0.5-0.2-1.2,0-1.8,1l-20.1,32.4c-1.4,2.1-2.1,2.4-3,2.2c-0.8-0.3-1.4-1-1.4-3.6
			l0.8-38.6c0-1.2-0.4-1.7-0.9-1.9l-0.8-0.2c-0.8-0.2-1.4,0.2-1.6,1c0,0.2-0.1,0.4-0.1,0.7l-0.6,39c-0.1,4.5,1.7,6,3.8,6.6
			c2.2,0.7,4.2,0.5,6.6-3.3l20.4-32.7c0.1-0.2,0.2-0.5,0.3-0.8C227.1,69,226.9,68.5,226.2,68.2z"/>
		<path class="st4" d="M335,106.4l7.5,2.4l-8.1,27.4c0.8,0,1.7,0.1,2.5,0.1c0.4,0,0.8,0,1.1,0l7.8-26.4l9,2.9c0.8,0.3,1.6,0,1.8-0.8
			l0.2-0.8c0.2-0.8-0.3-1.4-1.1-1.6l-9-2.9l2.4-8.1c0.2-0.8,0-1.6-0.8-1.9l-0.8-0.3c-0.8-0.3-1.5,0.3-1.7,1.1l-2.4,8.1l-7.5-2.4
			c-0.8-0.3-1.6-0.1-1.8,0.7l-0.2,0.8C333.7,105.5,334.2,106.2,335,106.4z"/>
	</g>
</g>
</svg>
