<?xml version="1.0" encoding="utf-8"?>
<!-- Generator: Adobe Illustrator 23.0.2, SVG Export Plug-In . SVG Version: 6.00 Build 0)  -->
<svg version="1.1" id="Layer_1" xmlns="http://www.w3.org/2000/svg" xmlns:xlink="http://www.w3.org/1999/xlink" x="0px" y="0px"
	 viewBox="0 0 512 512" style="enable-background:new 0 0 512 512;" xml:space="preserve">
<style type="text/css">
	.st0{fill:#231F20;}
	.st1{fill:none;stroke:#231F20;stroke-width:10;stroke-miterlimit:10;}
	.st2{fill:#B7CD11;}
</style>
<g>
	<g>
		<path class="st0" d="M473.5,299.5c-5.7,0-10.9,1.4-15.5,3.5c-7-9-18-14.8-30.3-14.8c-6.4,0-12.2,1.7-17.2,4.2l-0.5,0.3l-15.7,9.3
			c-7-8.4-17.6-13.8-29.4-13.8c-6.4,0-12.2,1.7-17.2,4.2l-0.6,0.4l-60.2,36.9c-13.6-4-28.7-8.4-43.3-12.6
			c-15.4-4.4-30.2-8.4-42-11.4c-5.9-1.5-11.1-2.7-15.4-3.6c-2.1-0.4-4-0.8-5.7-1c-1.7-0.3-3.1-0.4-4.7-0.4c-1.2,0-2.3,0.1-3.5,0.3
			c-4.4,0.6-10.7,1.9-18.2,3.7c-15.2,3.6-34.6,8.8-45.3,11.7V298c0-12.6-10.3-22.9-22.9-22.9H22.9C10.3,275.2,0,285.4,0,298v177.3
			c0,12.6,10.3,22.9,22.9,22.9h62.9c12.6,0,22.9-10.3,22.9-22.9v-13.8c13.6,3,43.7,9.5,75.5,16c21.5,4.4,43.7,8.8,62.1,12.2
			c9.2,1.7,17.4,3.1,24.1,4c6.8,1,11.8,1.6,15.7,1.6c3,0,5.8-0.6,8.9-1.4c5.7-1.6,12.2-4.3,19.6-7.9c25.9-12.6,63-36.2,98-59.6
			c35-23.3,67.7-46.4,83.7-57.4c10-6.9,15.7-18.6,15.7-31C512,316.8,494.8,299.6,473.5,299.5z M91.5,475.4c0,3.1-2.6,5.7-5.7,5.7
			H22.9c-3.1,0-5.7-2.6-5.7-5.7V298c0-3.1,2.6-5.7,5.7-5.7h62.9c3.1,0,5.7,2.6,5.7,5.7V475.4z M486.6,354.9
			c-19.7,13.6-63.8,44.7-106.5,72.5c-21.3,13.9-42.3,26.8-59.5,36.3c-8.6,4.7-16.3,8.5-22.4,11.1c-3.1,1.3-5.7,2.2-7.9,2.8
			c-2.1,0.6-3.7,0.8-4.3,0.8c-1.9,0-6.8-0.5-13.2-1.4c-22.5-3.3-64.7-11.7-101.1-19.3c-18.2-3.8-34.9-7.4-47.1-10
			c-7.1-1.5-12.6-2.7-16-3.5V334c1.7-0.5,3.9-1.1,6.5-1.8c9-2.5,22.8-6.1,35.2-9.2c6.2-1.5,12-2.9,16.7-3.9c2.3-0.5,4.3-0.9,5.9-1.1
			c1.5-0.3,2.7-0.3,2.7-0.3c0,0,0.9,0.1,2.2,0.2c4.7,0.7,14.4,3,26.3,6.1c35.6,9.3,91.8,26.1,114.5,33c7.9,2.4,15,5.9,19.6,10.3
			c2.3,2.2,4.1,4.5,5.3,7c1.2,2.5,1.9,5.2,1.9,8.6c0,6.7-2.7,12.8-7.1,17.2c-4.4,4.4-10.3,7-17,7.1l-22.1-2.2l-75.6-9.7
			c-4.7-0.6-9,2.7-9.6,7.4c-0.6,4.7,2.7,9,7.4,9.6l75.8,9.7l23.5,2.3h0.4c22.9,0,41.4-18.6,41.5-41.5c0-5.8-1.3-11.2-3.5-15.9
			c-3.4-7.1-8.9-12.7-15.1-16.9c-6.2-4.2-13.2-7.2-20.4-9.4c-4-1.2-9-2.7-14.7-4.5l46.6-28.5c3-1.5,6.1-2.3,9.4-2.3
			c5.5,0,10.6,2.1,14.3,5.6l-23,13.6c-4.1,2.4-5.4,7.7-3,11.8c2.4,4.1,7.7,5.4,11.8,3l53.4-31.7c3-1.5,6.1-2.4,9.4-2.4
			c5.9,0,11.2,2.5,15.1,6.4l-62.2,36.9c-4.1,2.4-5.4,7.7-3,11.8c2.4,4.1,7.7,5.4,11.8,3l67.2-39.9c0.7-0.1,1.3-0.3,2-0.5
			c1.4-0.6,2.5-1.5,3.4-2.6l2.1-1.2c3-1.5,6.1-2.4,9.4-2.4c5.9,0,11.2,2.4,15.1,6.2c3.9,3.9,6.2,9.2,6.2,15.1
			C494.8,345.2,491.5,351.5,486.6,354.9z"/>
	</g>
</g>
<path class="st1" d="M350,14.2H194c-25.4,0-46,20.6-46,46v150.6c0,25.4,20.6,46,46,46h156c25.4,0,46-20.6,46-46V60.2
	C396,34.8,375.4,14.2,350,14.2z"/>
<g>
	<polygon class="st2" points="265.3,118.3 277.2,119 272.8,128 278.3,128.3 267.8,141.6 273.5,141.9 262.9,156.7 263.6,146.1 
		257.9,145.7 264,132.3 258.7,132 	"/>
	<path class="st0" d="M286.8,109.4c-8.2-6.6-22.3-7.7-33.4-2.5c-11.3,5.2-17.6,15.6-17.9,29.3c0,0,0,0.1,0,0.1h-6l9.2,13.8l9.2-13.8
		h-5.7c0.4-14,7.9-20.4,14.1-23.3c8.8-4.1,20.2-3.4,26.4,1.7c1.4,1.2,3.5,0.9,4.7-0.5C288.4,112.6,288.2,110.5,286.8,109.4
		L286.8,109.4z"/>
	<path class="st0" d="M306.3,136.2l-9.2-13.8l-9.2,13.8h5.7c-0.4,14-7.9,20.4-14.1,23.3c-8.8,4.1-20.2,3.4-26.4-1.7
		c-1.4-1.2-3.5-0.9-4.7,0.5c-1.2,1.4-0.9,3.5,0.5,4.7c4.7,3.8,11.4,5.8,18.3,5.8c5.1,0,10.4-1.1,15.1-3.3
		c11.3-5.2,17.6-15.6,17.9-29.3c0,0,0-0.1,0-0.1L306.3,136.2L306.3,136.2L306.3,136.2z"/>
	<path class="st0" d="M219.3,119.5c0-0.7-0.3-1.2-1.1-1.2h-0.9c-0.5,0-1.1,0.3-1.4,1.4l-10,35.2c-0.7,2.3-1.3,2.8-2.2,2.8
		c-0.9,0-1.6-0.5-2.3-2.8l-10-35.2c-0.3-1.1-0.9-1.4-1.4-1.4h-0.8c-0.8,0-1.2,0.5-1.2,1.3c0,0.2,0,0.4,0.1,0.6l10.2,35.5
		c1.2,4.1,3.3,4.9,5.5,4.9c2.3,0,4.1-0.8,5.3-4.9l10.2-35.5C219.3,120,219.3,119.7,219.3,119.5L219.3,119.5z M320.6,158.7v-55
		c0-0.8-0.5-1.5-1.3-1.5h-0.8c-0.8,0-1.3,0.7-1.3,1.5v55c0,0.8,0.5,1.5,1.3,1.5h0.8C320,160.2,320.6,159.5,320.6,158.7L320.6,158.7z
		 M353.3,159.2v-0.5c0-0.7-0.5-1.1-1.6-1.1H348c-3.4,0-5.4-0.7-5.4-5.4v-30.7h9.3c0.9,0,1.5-0.5,1.5-1.2v-0.8c0-0.8-0.6-1.2-1.5-1.2
		h-9.3v-8c0-0.8-0.5-1.5-1.2-1.5h-0.9c-0.9,0-1.3,0.7-1.3,1.5v8h-7.7c-0.9,0-1.5,0.4-1.5,1.2v0.8c0,0.8,0.6,1.2,1.5,1.2h7.7v30.7
		c0,6.7,3.3,8.4,8.8,8.4c1.3,0,2.9-0.1,4.1-0.2C353.1,160.3,353.3,159.8,353.3,159.2L353.3,159.2z"/>
</g>
</svg>
