<svg xmlns="http://www.w3.org/2000/svg" viewBox="0 0 944 200">
  <title>splash-anima</title>
  <g id="ende">
    <g>
      <polygon points="254.26 162.79 256.19 160.79 253.27 157.4 251.09 159.51 254.26 162.79" fill="#191918"/>
      <rect x="240.1" y="138.37" width="7.76" height="24.04" rx="1.49" transform="translate(-36.3 210.27) rotate(-43.71)" fill="#291800"/>
    </g>
    <g>
      <rect x="685.13" y="107.95" width="15.68" height="19.85" rx="1.57" transform="translate(135.06 -309.71) rotate(27.81)" fill="#291800"/>
      <rect x="685.15" y="124.46" width="5.05" height="8.02" rx="1.49" transform="translate(139.39 -306.02) rotate(27.81)" fill="#291800"/>
    </g>
    <g>
      <rect x="671.53" y="27.77" width="89.81" height="89.81" rx="13.49" transform="translate(87.69 -278.38) rotate(23.38)" fill="#fff" stroke="#291800" stroke-miterlimit="10" stroke-width="0.39"/>
      <g>
        <circle cx="705.92" cy="98.7" r="0.62" fill="#b4b4b4"/>
        <circle cx="711.45" cy="100.78" r="0.62" fill="#b4b4b4"/>
        <circle cx="717.15" cy="103.23" r="0.62" fill="#b4b4b4"/>
        <circle cx="722.63" cy="105.61" r="0.62" fill="#b4b4b4"/>
        <circle cx="731.45" cy="108.98" r="4.59" fill="none" stroke="#b4b4b4" stroke-miterlimit="10" stroke-width="0.87"/>
        <g>
          <g>
            <polygon points="730.3 61.32 732.39 59.71 732.74 62.33 733.09 64.95 730.65 63.94 728.21 62.93 730.3 61.32" fill="#0d090d"/>
            <g>
              <polygon points="709.8 55.79 712.26 56.75 710.2 58.4 708.13 60.05 707.73 57.44 707.34 54.83 709.8 55.79" fill="#0d090d"/>
              <path d="M708.9,56.6l1.35.26.81-.58a9.41,9.41,0,0,1,5.37-5.77s4.18-2,7.73.23c0,0,2.94.78,5.1,4.6,0,0,3.22.85.71-2.85,0,0-5.1-5.17-10-4.78,0,0-5-.49-9.63,5C710.3,52.7,708.3,55.26,708.9,56.6Z" fill="#291800"/>
            </g>
            <path d="M731.65,63.21,730.3,63l-.79.59a9.4,9.4,0,0,1-5.26,5.88s-4.14,2.12-7.73-.07c0,0-3-.72-5.2-4.49,0,0-3.24-.79-.65,2.86,0,0,5.21,5.06,10.14,4.57,0,0,5,.39,9.52-5.19C730.33,67.13,732.29,64.53,731.65,63.21Z" fill="#291800"/>
          </g>
          <polygon points="726.53 56.06 722.04 54.33 717.69 57.45 719.12 59.44 714.85 61.57 717.14 62.82 715.59 67.19 721.33 64.44 720.42 62.6 724.91 60.43 723.54 58.32 726.53 56.06" fill="#c3d56a"/>
          <path d="M694.37,42.49s1-1.17,1.46.38l-1.78,13.47s-.18,3.22,1.9,1l8.26-11s1.55-.88,1.32,1l-8.77,10.88s-3.16,3.25-4-1Z" fill="#0d090d"/>
          <path d="M742,55.7s1-.87,1.45.65l-7.66,19.26s-1.28,1.22-1.73-.65Z" fill="#0d090d"/>
          <path d="M748,63.94l.81-2.76s1.14-1,1.46.46l-1.09,2.89,2.68,1s1.48,1.2-.44,1.68l-2.72-.83-4.39,10.36a1.7,1.7,0,0,0,.24,2.24l2.21.75s.94,1-.55,1.6l-2.67-1a2.41,2.41,0,0,1-1.42-2.93l5.19-12.19-2.59-1.1s-1.12-.83.37-1.38Z" fill="#0d090d"/>
        </g>
        <g>
          <path d="M698.88,71l-.44-.18.23-.56.51.21.36-.63-.47-.2.23-.56.54.23.54-.94.5.21-.52.94.61.26.54-.94.5.21-.52.94.47.2-.24.56-.54-.22-.36.62.51.21-.24.57-.57-.24-.6,1.06-.51-.22.6-1.06-.62-.25-.6,1.06-.51-.22Zm1.43-.06.36-.63-.62-.26-.36.63Z" fill="#291800"/>
          <path d="M703,69.47l1.34.56c.85.36,1.42,1,1,1.9a1.45,1.45,0,0,1-2.08.69l-.48-.2-.55,1.32-.88-.37Zm.52,2.43c.49.2.81.08,1-.33s0-.66-.51-.86l-.41-.17-.49,1.18Z" fill="#291800"/>
          <path d="M705.2,73.22a1.58,1.58,0,1,1,.8,2.16A1.58,1.58,0,0,1,705.2,73.22Zm2,.83c.22-.51.18-.92-.19-1.07s-.68.1-.89.62-.18.92.19,1.07S707,74.57,707.19,74.05Z" fill="#291800"/>
          <path d="M709,73.07l.87.37-.29,1.49c-.07.32-.16.62-.23.94h0a9.57,9.57,0,0,1,.55-.81l.89-1.24.77.32-.24,1.51c0,.33-.12.64-.19,1h0c.18-.27.33-.55.5-.82l.86-1.26.81.34-2,2.67-1-.43.23-1.3c.06-.29.12-.59.2-.93h0c-.19.3-.35.56-.52.81l-.75,1.07-1-.42Z" fill="#291800"/>
          <path d="M713.08,76.51a1.58,1.58,0,0,1,2-1,1.35,1.35,0,0,1,.66,1.95,2,2,0,0,1-.19.37l-1.78-.74a.77.77,0,0,0,.51.95,1.32,1.32,0,0,0,.72.07l.07.66a2.09,2.09,0,0,1-1.19-.11A1.56,1.56,0,0,1,713.08,76.51Zm2,.47a.53.53,0,0,0-.26-.77.66.66,0,0,0-.82.32Z" fill="#291800"/>
          <path d="M717,76.39l.72.3-.16.54h0a1.07,1.07,0,0,1,1.08-.23,1,1,0,0,1,.34.2l-.47.7a1.09,1.09,0,0,0-.3-.18.8.8,0,0,0-.88.28l-.72,1.72-.88-.37Z" fill="#291800"/>
          <path d="M718.68,79.32l.5-1.2-.4-.16.27-.66.47.15.43-.74.73.3-.33.79.71.3-.28.69-.72-.3-.49,1.19c-.14.34-.05.54.18.63a.89.89,0,0,0,.31.06l-.13.7a2.33,2.33,0,0,1-.7-.17C718.49,80.6,718.4,80,718.68,79.32Z" fill="#291800"/>
          <path d="M720.74,79.71a1.58,1.58,0,1,1,.8,2.16A1.58,1.58,0,0,1,720.74,79.71Zm2,.83c.22-.51.18-.92-.19-1.07s-.68.1-.89.62-.18.92.19,1.07S722.52,81.06,722.73,80.54Z" fill="#291800"/>
          <path d="M723.22,83.09a.77.77,0,0,1,.68-.43v0a.59.59,0,0,1-.06-.62.78.78,0,0,1,.56-.42v0a1,1,0,0,1-.08-.93,1.21,1.21,0,0,1,1.68-.57,1.85,1.85,0,0,1,.43.27l1.08.45-.26.64-.48-.2a.91.91,0,0,1-.06.44,1.1,1.1,0,0,1-1.59.5,1.37,1.37,0,0,1-.34-.2.25.25,0,0,0-.19.17c-.07.15,0,.27.35.41l.48.2c.73.3,1,.69.82,1.23s-1.09.79-2.11.37C723.46,84.07,723,83.61,723.22,83.09Zm2.13.69c.08-.18-.06-.29-.35-.42l-.31-.12a1.91,1.91,0,0,1-.4-.22.4.4,0,0,0-.28.23c-.1.22.12.45.51.61S725.27,84,725.35,83.78Zm.62-2.45a.45.45,0,0,0-.2-.66c-.23-.09-.47,0-.61.32s0,.57.2.66S725.84,81.65,726,81.33Z" fill="#291800"/>
          <path d="M727.16,82.39a1.57,1.57,0,1,1,.79,2.16A1.58,1.58,0,0,1,727.16,82.39Zm2,.83c.21-.52.17-.92-.19-1.08s-.69.11-.9.62-.17.92.19,1.08S728.93,83.73,729.15,83.22Z" fill="#291800"/>
        </g>
      </g>
    </g>
    <path d="M211.51,37.23c33.18,2.7,58.16,27.08,73.41,55,.81,1.48,3.08.16,2.27-1.33C271.45,62.1,245.65,37.39,211.51,34.6c-1.69-.13-1.68,2.49,0,2.63Z" fill="#8b8b88"/>
    <path d="M255.5,161.44s74.41,54.86,181.6,13.39a33.11,33.11,0,0,0,6.23-3.22c11.2-7.27,53.23-33.24,84.18-34.09,32.62-.9,68.53,18.73,75,22.42,1,.57,2,1.08,3,1.55,10.63,4.73,60.38,23.51,80-29.93" fill="#fff" stroke="#000" stroke-miterlimit="10" stroke-width="0.51"/>
    <path d="M226.54,7.6c8.31,1.57,15.79,7.12,22.57,12a161.44,161.44,0,0,1,19.33,16.27,164.38,164.38,0,0,1,29.43,39.35c.8,1.49,3.06.17,2.26-1.32A165.14,165.14,0,0,0,250.44,17.3c-7-5-14.63-10.62-23.2-12.24-1.65-.31-2.36,2.22-.7,2.54Z" fill="#8b8b88"/>
    <g>
      <polygon points="254.26 162.79 256.19 160.79 253.27 157.4 251.09 159.51 254.26 162.79" fill="#191918"/>
      <rect x="240.1" y="138.37" width="7.76" height="24.04" rx="1.49" transform="translate(-36.3 210.27) rotate(-43.71)"/>
    </g>
    <path d="M127,96c-4,33.87,15.27,64,40.29,85,1.29,1.08,3.15-.77,1.86-1.86C144.6,158.55,125.73,129.27,129.62,96c.2-1.67-2.43-1.66-2.62,0Z" fill="#8b8b88"/>
    <path d="M95,105.27c0,8.45,3.63,16.59,7,24.21a162.69,162.69,0,0,0,12.37,23A166.5,166.5,0,0,0,148,190.32c1.29,1.07,3.16-.78,1.86-1.86a162.43,162.43,0,0,1-43.63-55.86c-3.94-8.28-8.71-18-8.65-27.33a1.32,1.32,0,0,0-2.63,0Z" fill="#8b8b88"/>
    <g>
      <path d="M175,12c3.5,4.08,7,8.14,10.48,12.26.7.84,1.8,1.06,2.45,1.9,0,.16-.08.33-.11.49-.43.86.41,1.19.76,1.67,1.32,1.82,3,3.33,4.17,5.28,0,.21,0,.41,0,.62-.52,0-.69-.41-1-.75-1-1.12-1.7-2.49-3-3.3l0,0a29.69,29.69,0,0,0-4.86-5.64h0c-.07-.6-.52-.87-1-1.14h0c-.08-.6-.53-.87-1-1.15a2.29,2.29,0,0,0-.07-.28l-.27-.31-.7-.82-.26-.31c-1.84-2.89-4.34-5.19-6.73-7.61-.06-.59-.51-.86-1-1.13-.07-.59-.51-.86-1-1.13-.34-1.08-1.36-1.64-2-2.52.29-.48.79-.32,1.21-.4l.31.27c-.56.89.16.79.66.85l0,0c0,.69.14,1.2,1,1.16v0C173.36,11.3,174.11,12.09,175,12Z" fill="#747474"/>
      <path d="M192.7,34.23c0-.21,0-.41,0-.62l.61-.08.58-.05h0l0,.32a43,43,0,0,0,4.59,5.66c5.7,6.73,11.44,13.41,17.17,20.12.18.22.33.48.5.72V61l-.64-.24h0a1.28,1.28,0,0,0-1-1.15v0a1.26,1.26,0,0,0-1-1.15v0a1.28,1.28,0,0,0-1-1.15h0c0-.63-.44-.93-1-1.14h0a.79.79,0,0,0-.94-.85l-2.25-2.53c.37-1.09-.7-1.25-1.16-1.8l-.11.4c-2.46-2.47-4.58-5.23-6.78-7.92.58-.89-.14-.79-.65-.86h0c0-.68-.15-1.2-1-1.13h0c0-.72-.17-1.22-1-1.14h-.21c0-.08,0-.15,0-.22,0-.49,0-1-.71-.9l-.22,0,0-.21c0-.49,0-1-.71-.91l-.26-.22c0-.47,0-1-.66-.91h0l-.32-.3v0a1.16,1.16,0,0,0-1-1.44v0c.12-.75-.37-1-1-1.15Z" fill="#676767"/>
      <path d="M144.22,97.43c-2.71-.45-3.5-3.1-5.24-4.67-1-.9-1.73-2.08-2.67-3.05a1.07,1.07,0,0,1-.12-1.61l0,0,.9-.07a3.19,3.19,0,0,0,2.25,2.54c0,.66.16,1.17,1,1.13,0,.66.16,1.17,1,1.13,0,.66.16,1.17,1,1.13,0,.66.16,1.17,1,1.13,0,.66.16,1.17,1,1.14l.06,1.2Z" fill="#676767"/>
      <path d="M171.16,7.78c-.42.08-.92-.08-1.21.4l-.29-.11c-.54-.17-.74-.71-1.14-1L168,6.27c-.11-.3-.36-.34-.63-.32V6c-.71-1.29-2-1.2-3.2-1.3a.84.84,0,0,1-1,.08l0-.37,0-.53A10.5,10.5,0,0,1,171.16,7.78Z" fill="#6e6e6e"/>
      <path d="M109,49.07a2.31,2.31,0,0,1,.83-2.33h.83a14,14,0,0,0-.67,2c-.36,1.79-.82,3.59.12,5.36l.07,0,0,.8.2.81,0,.53c-.56-.07-.6-.52-.76-.94C108.91,53.28,109.34,51.13,109,49.07Z" fill="#7b7b7b"/>
      <path d="M134.26,85.83c-.8.46-1.37.3-1.68-.6a5.51,5.51,0,0,0-2-2.41c.74-.7-.46-1.19-.21-1.84l.93.22c0,.66.16,1.17,1,1.14,0,.65.15,1.17,1,1.13,0,.66.16,1.17,1,1.13l.06,1.2Z" fill="#676767"/>
      <path d="M193.33,33.53l-.61.08c-1.14-1.95-2.85-3.46-4.17-5.28-.35-.48-1.19-.81-.76-1.67a1.44,1.44,0,0,0,1,.27h0c0,.47.06.9.65,1l.36.34c-.06.68.25,1,.93,1h0c0,.67.16,1.18,1,1.14h0c0,.67.16,1.18,1,1.15h0a1,1,0,0,0,.68,1.19Z" fill="#7f8086"/>
      <path d="M109,49.07c.33,2.06-.1,4.21.68,6.24.16.42.2.87.76.94l0,0a.53.53,0,0,0,.34.58h0l0,1.21h-.25A9.86,9.86,0,0,1,109,49.07Z" fill="#676767"/>
      <path d="M208.91,168.39c-2.49-.22-4.47-1.53-6.38-3a.69.69,0,0,1-.32-.89,2.26,2.26,0,0,0,1.2.4c.69.22,1,1.52,2,.8l0,0,.08.57c.22.85.94.94,1.62,1.12s1.38.06,1.76.79A1.23,1.23,0,0,1,208.91,168.39Z" fill="#676767"/>
      <path d="M262.49,114.69a10.44,10.44,0,0,1,1.64,8l-.28-.26c-.19-2,0-4.12-1.29-5.89v0c0-.36,0-.76-.46-.87l-.16-.3C262.35,115.32,262.49,115.06,262.49,114.69Z" fill="#6e6e6e"/>
      <path d="M130.4,81c-.25.65.95,1.14.21,1.84A22.48,22.48,0,0,1,127,78.55c.3-1.17.81.3,1.17-.09A3.62,3.62,0,0,0,130.41,81Z" fill="#7f8086"/>
      <path d="M208.91,168.39a1.23,1.23,0,0,0,0-.2.75.75,0,0,0,.3-.69l.52,0c0,.24.14.55.4.54,1.92-.05,3.9.16,5.56-1.16l1.18-.08,0,0c-2.11,1.65-4.56,1.91-7.12,1.71A8.55,8.55,0,0,1,208.91,168.39Z" fill="#5d5d5d"/>
      <path d="M163.12,3.85l0,.53a9.76,9.76,0,0,0-3,.1c-1.32.19-2.46.94-3.79.95l0,0A8.75,8.75,0,0,1,163.12,3.85Z" fill="#5d5d5d"/>
      <path d="M263.85,122.41l.28.26c-.25,1.66-.5,3.32-1.74,4.61l0,0c.05-.61.11-1.21.17-1.81.38-.22.27-.57.25-.9a.56.56,0,0,0,.26-.62C263.53,123.54,263.29,122.76,263.85,122.41Z" fill="#676767"/>
      <path d="M262.49,114.69c0,.37-.14.63-.55.68-.23-.34-.46-.69-.7-1,0-.46,0-1-.67-1h0l-.07-1.21v0A5.27,5.27,0,0,1,262.49,114.69Z" fill="#676767"/>
      <path d="M128.14,78.46c-.36.39-.87-1.08-1.17.09-1.3-.3-.2-1.48-.75-2l0,0,.91-.07c0,.66.15,1.17,1,1.13l0,.9Z" fill="#676767"/>
      <path d="M140.2,18.94a6.67,6.67,0,0,1,2.55-2.25l0,0c-.06.41-.13.82-.2,1.23-.67,0-1.19.13-1.13,1l-1.21.06Z" fill="#5d5d5d"/>
      <path d="M229.62,156.16a6.64,6.64,0,0,1-2.54,2.25l0,0,.21-1.22c.67,0,1.18-.14,1.13-1l1.21-.05Z" fill="#5d5d5d"/>
      <path d="M186.33,146.36a6.8,6.8,0,0,1-2.24-2.55l0,0,1.22.21c0,.66.16,1.17,1,1.13l.06,1.21Z" fill="#676767"/>
      <path d="M149.36,103.37a6.8,6.8,0,0,1-2.24-2.55l0,0,1.22.21c0,.66.16,1.17,1,1.13l.06,1.21Z" fill="#676767"/>
      <path d="M251.68,137.2a6.7,6.7,0,0,1-2.54,2.24l0,0,.21-1.23c.67,0,1.18-.14,1.13-1l1.21-.05Z" fill="#5d5d5d"/>
      <path d="M118.14,37.91a6.67,6.67,0,0,1,2.55-2.25l0,0c-.06.41-.13.82-.2,1.22-.67,0-1.19.14-1.13,1l-1.21,0Z" fill="#5d5d5d"/>
      <path d="M224.56,70.28a6.15,6.15,0,0,1,2.24,2.55l0,0-.9.06a.65.65,0,0,0-.31-.6.82.82,0,0,0-1-.8l-.06-1.2Z" fill="#5d5d5d"/>
      <path d="M252.5,102.82a6.82,6.82,0,0,1,2.25,2.55l0,0-1.23-.21h0c0-.66-.18-1.18-1-1.15h0l-.07-1.2Z" fill="#676767"/>
      <path d="M240.09,147.16a6.71,6.71,0,0,1-2.54,2.25l0,0c.07-.41.13-.82.2-1.22.67,0,1.19-.14,1.13-1l1.21-.05Z" fill="#5d5d5d"/>
      <path d="M158.37,113.83a6.71,6.71,0,0,1-2.25-2.54l0,0,1.22.21c0,.66.16,1.17,1,1.13l0,1.2Z" fill="#676767"/>
      <path d="M150.67,9.94a6.64,6.64,0,0,1,2.54-2.25l0,0c-.07.41-.14.82-.2,1.23-.68,0-1.19.13-1.14,1l-1.2.05Z" fill="#5d5d5d"/>
      <path d="M177.33,135.89a6.77,6.77,0,0,1-2.24-2.54l0,0,1.22.21c0,.66.16,1.17,1,1.13l.06,1.2Z" fill="#676767"/>
      <path d="M128.61,28.91a6.64,6.64,0,0,1,2.54-2.25l0,0L131,27.91c-.67,0-1.18.14-1.13,1l-1.2.05Z" fill="#5d5d5d"/>
      <path d="M262.39,127.28c-.42.83-.67,1.8-1.67,2.19l0-.32.22-1.23,0,0,.41-.37v-.12l1.06-.2Z" fill="#676767"/>
      <path d="M110.67,46.75h-.83a2.53,2.53,0,0,1,1.27-2.41h0L110.94,46v.12l-.28.45A.19.19,0,0,1,110.67,46.75Z" fill="#5d5d5d"/>
      <path d="M219.16,165.16a3.13,3.13,0,0,1-2.27,1.66l0,0c.07-.32.14-.63.22-.94.47,0,.92,0,.85-.65l1.21-.05Z" fill="#5d5d5d"/>
      <path d="M175,12c-.86.08-1.61-.71-1.9-2A7.81,7.81,0,0,1,175,12Z" fill="#676767"/>
      <path d="M216.19,61v-.7a5.15,5.15,0,0,1,1.63,2l-.05.06-1.23-.22,0,0A1.78,1.78,0,0,0,216.19,61Z" fill="#5d5d5d"/>
      <path d="M244.13,92.9a5.25,5.25,0,0,1,1.63,2l0,0-1.23-.21h0a1.89,1.89,0,0,0-.36-1.17Z" fill="#676767"/>
      <path d="M117.33,67.52c-1-.43-.12-1-.1-1.5l0,0,.9-.06c.14.55-.25.87-.55,1.23Z" fill="#5d5d5d"/>
      <path d="M111.11,44.33c.3-.67.53-1.41,1.38-1.59l0,0c0,.3.06.61.08.91l-.27.32-.31.29-.88.06Z" fill="#5d5d5d"/>
      <path d="M154.34,6.73a2.66,2.66,0,0,1,2-1.34l0,0c.17.69-1,.56-.79,1.28l-1.21,0Z" fill="#5d5d5d"/>
      <path d="M167.37,124.3c-.52-.39-1.17-.66-1.28-1.42l0,0,1.22.22c0,.4,0,.8.07,1.19Z" fill="#676767"/>
      <path d="M195.34,156.82c-.52-.39-1.17-.66-1.29-1.41l0,0,1.22.21.06,1.2Z" fill="#676767"/>
      <path d="M234.51,81.89c.52.38,1.17.65,1.28,1.41l0,0-1.23-.21-.06-1.2Z" fill="#5d5d5d"/>
      <path d="M122.36,72l-1.2-.79v-.07c.2-.74.77-.3,1.17-.36,0,.39.05.79.07,1.19Z" fill="#676767"/>
      <path d="M260.69,129.15l0,.32c-.26.45-.5.93-1.11,1l0,0,.2-1.23Z" fill="#5d5d5d"/>
      <path d="M203.41,164.93a2.26,2.26,0,0,1-1.2-.4h0l-.12-1.05,1.22.87h0Z" fill="#7f8086"/>
      <path d="M113.37,61.5c-.45-.26-.94-.5-1-1.12l0,0,1-.07.28.26c-.35.24-.27.6-.27.94Z" fill="#5d5d5d"/>
      <path d="M235.28,151.34c-.27.44-.52.92-1.13,1l0,0c0-.3,0-.61-.07-.91l1.2-.06Z" fill="#5d5d5d"/>
      <path d="M114.75,40.8c.27-.44.52-.92,1.13-1l0,0c0,.31,0,.61.07.91l-1.2.06Z" fill="#5d5d5d"/>
      <path d="M113.62,41.77c.27-.44.51-.92,1.13-1l0,0c0,.3,0,.6.07.9l-1.21.06Z" fill="#5d5d5d"/>
      <path d="M112.49,42.74c.26-.46.51-.92,1.13-1l0,0,.07.91-1.2.06Z" fill="#5d5d5d"/>
      <path d="M236.41,150.37c-.27.45-.51.92-1.13,1l0,0c0-.3,0-.6-.07-.9l1.21-.06Z" fill="#5d5d5d"/>
      <path d="M193.09,154.28c-.44-.28-.91-.53-1-1.13l0,0,.9-.07.07,1.2Z" fill="#676767"/>
      <path d="M237.55,149.41c-.28.44-.52.92-1.14,1l0,0-.07-.91,1.2-.06Z" fill="#5d5d5d"/>
      <path d="M115.88,39.84c.27-.45.52-.92,1.13-1l0,0,.07.91-1.2,0Z" fill="#5d5d5d"/>
      <path d="M234.15,152.3c-.27.45-.52.92-1.13,1l0,0-.07-.9,1.2-.06Z" fill="#5d5d5d"/>
      <path d="M192.12,153.15c-.44-.28-.91-.53-1-1.14l0,0,.9-.06.06,1.2Z" fill="#676767"/>
      <path d="M147.27,12.84c.28-.45.52-.93,1.14-1l0,0c0,.3,0,.6.07.9l-1.2.06Z" fill="#5d5d5d"/>
      <path d="M117,38.87c.28-.44.52-.92,1.13-1l0,0c0,.31,0,.61.07.91l-1.2.06Z" fill="#5d5d5d"/>
      <path d="M148.41,11.87c.27-.45.52-.92,1.13-1l0,0,.08.91-1.21.06Z" fill="#5d5d5d"/>
      <path d="M191.16,152c-.44-.27-.91-.52-1-1.13l0,0,.9-.06.07,1.19Z" fill="#676767"/>
      <path d="M190.19,150.88c-.44-.27-.91-.52-1-1.13l0,0,.9-.06.06,1.19Z" fill="#676767"/>
      <path d="M241.22,146.2c-.27.44-.52.92-1.13,1l0,0c0-.31-.05-.61-.07-.91l1.2-.06Z" fill="#5d5d5d"/>
      <path d="M233,153.27c-.27.44-.52.92-1.13,1l0,0-.07-.91,1.2-.06Z" fill="#5d5d5d"/>
      <path d="M242.35,145.23c-.27.44-.52.92-1.13,1l0,0c0-.3,0-.6-.07-.9l1.2-.06Z" fill="#5d5d5d"/>
      <path d="M110.52,58.08h.25l.61,0c0,.39.06.79.08,1.18l0,0C111,59,110.52,58.71,110.52,58.08Z" fill="#5d5d5d"/>
      <path d="M112.39,60.38c-.44-.28-.93-.52-1-1.15l0,0,.89-.05.07,1.19Z" fill="#5d5d5d"/>
      <path d="M189.23,149.75c-.44-.27-.91-.52-1-1.13l0,0,.9-.07.07,1.2Z" fill="#676767"/>
      <path d="M231.89,154.23c-.28.45-.52.92-1.14,1l0,0-.07-.9,1.2-.06Z" fill="#5d5d5d"/>
      <path d="M196.3,158c-.44-.27-.91-.52-1-1.13l0,0,.9-.06c0,.39.05.79.07,1.19Z" fill="#676767"/>
      <path d="M243.48,144.27c-.27.44-.51.92-1.13,1l0,0c0-.31,0-.61-.07-.91l1.21-.06Z" fill="#5d5d5d"/>
      <path d="M114.33,62.63c-.45-.27-.91-.52-1-1.13l0,0,.9-.07.06,1.2Z" fill="#5d5d5d"/>
      <path d="M115.3,63.76c-.45-.27-.92-.52-1-1.13l0,0,.91-.07.06,1.2Z" fill="#5d5d5d"/>
      <path d="M188.26,148.62c-.44-.28-.91-.53-1-1.13l0,0,.9-.07.06,1.2Z" fill="#676767"/>
      <path d="M244.62,143.3c-.28.44-.52.92-1.14,1l0,0c0-.3-.05-.6-.07-.9l1.2-.06Z" fill="#5d5d5d"/>
      <path d="M116.26,64.89c-.45-.26-.91-.52-1-1.13l0,0,.9-.07.06,1.2Z" fill="#5d5d5d"/>
      <path d="M117.23,66c-.45-.26-.92-.52-1-1.13l0,0,.91-.07.06,1.2Z" fill="#5d5d5d"/>
      <path d="M187.3,147.49c-.44-.28-.91-.53-1-1.13l0,0,.9-.07c0,.4.05.8.07,1.2Z" fill="#676767"/>
      <path d="M230.75,155.2c-.27.44-.51.92-1.13,1l0,0c0-.3,0-.61-.07-.91l1.2-.06Z" fill="#5d5d5d"/>
      <path d="M245.75,142.34c-.28.44-.52.92-1.13,1l0,0c0-.31-.05-.61-.07-.91l1.2-.06Z" fill="#5d5d5d"/>
      <path d="M121.82,34.7c.27-.45.52-.92,1.13-1l0,0,.07.9-1.2.06Z" fill="#5d5d5d"/>
      <path d="M246.88,141.37c-.27.44-.52.92-1.13,1l0,0c0-.3-.05-.6-.07-.9l1.2-.06Z" fill="#5d5d5d"/>
      <path d="M197.27,159.09c-.44-.28-.92-.53-1-1.14l0,0,.9-.06.06,1.19Z" fill="#676767"/>
      <path d="M217.81,62.34c.44.28.95.5,1,1.13l-.05.06-.92.07h0l-.07-1.21Z" fill="#5d5d5d"/>
      <path d="M149.54,10.9c.27-.44.52-.92,1.13-1l0,0c0,.31,0,.61.07.91l-1.21.06Z" fill="#5d5d5d"/>
      <path d="M218.78,63.47c.44.28.94.5,1,1.14l-.05,0-.91.07h0l-.06-1.21Z" fill="#5d5d5d"/>
      <path d="M248,140.41c-.27.44-.52.92-1.13,1l0,0-.07-.91,1.2-.06Z" fill="#5d5d5d"/>
      <path d="M219.74,64.61c.44.27.95.49,1,1.13l-.05.05-.92.07h0l-.07-1.21Z" fill="#5d5d5d"/>
      <path d="M123,33.73c.27-.44.52-.92,1.13-1l0,0,.07.91-1.2.06Z" fill="#5d5d5d"/>
      <path d="M123.33,73.11c-.44-.28-.92-.53-1-1.14l0,0,.9-.06.06,1.19Z" fill="#676767"/>
      <path d="M220.71,65.74c.44.27.94.5.95,1.14l0,0-.91.07h0l-.06-1.21Z" fill="#5d5d5d"/>
      <path d="M198.23,160.22c-.44-.28-.91-.53-1-1.13l0,0,.9-.06c0,.4.05.8.07,1.2Z" fill="#676767"/>
      <path d="M124.29,74.24c-.44-.28-.91-.53-1-1.13l0,0,.91-.06.06,1.2Z" fill="#676767"/>
      <path d="M221.66,66.88c.45.27.94.51,1,1.13l0,0-.9.06-.07-1.2Z" fill="#5d5d5d"/>
      <path d="M184.09,143.81c-.44-.27-.92-.52-1-1.13l0,0,.9-.06.07,1.19Z" fill="#676767"/>
      <path d="M124.08,32.77c.27-.45.52-.92,1.13-1l0,0,.07.9-1.2.06Z" fill="#5d5d5d"/>
      <path d="M125.26,75.37c-.44-.28-.92-.52-1-1.13l0,0,.9-.07.06,1.2Z" fill="#676767"/>
      <path d="M222.63,68c.44.28.93.51,1,1.13l0,0-.9.06-.06-1.19Z" fill="#5d5d5d"/>
      <path d="M183.12,142.68c-.44-.27-.91-.52-1-1.13l0,0,.9-.06.06,1.19Z" fill="#676767"/>
      <path d="M199.2,161.35c-.44-.28-.92-.52-1-1.13l0,0,.9-.07.06,1.2Z" fill="#676767"/>
      <path d="M126.22,76.5c-.44-.28-.91-.52-1-1.13l0,0,.91-.07.06,1.2Z" fill="#676767"/>
      <path d="M223.59,69.14c.45.28.94.51,1,1.14l0,0-.9.06c0-.4-.05-.79-.07-1.19Z" fill="#5d5d5d"/>
      <path d="M252.82,136.23c-.28.44-.52.92-1.14,1l0,0c0-.3,0-.6-.07-.9l1.2-.06Z" fill="#5d5d5d"/>
      <path d="M125.21,31.8c.28-.44.52-.92,1.14-1l0,0,.07.91-1.2.06Z" fill="#5d5d5d"/>
      <path d="M227.08,158.41c-.27.44-.52.92-1.13,1l0,0-.07-.91,1.2-.06Z" fill="#5d5d5d"/>
      <path d="M182.16,141.55c-.44-.28-.92-.52-1-1.13l0,0,.9-.07.07,1.2Z" fill="#676767"/>
      <path d="M254,135.27c-.28.44-.52.92-1.13,1l0,0c0-.31,0-.61-.07-.91l1.2-.06Z" fill="#5d5d5d"/>
      <path d="M126.35,30.84c.27-.45.51-.92,1.13-1l0,0,.07.9-1.2.06Z" fill="#5d5d5d"/>
      <path d="M226,159.37c-.27.45-.52.92-1.13,1l0,0-.07-.9,1.2-.06Z" fill="#5d5d5d"/>
      <path d="M181.19,140.42c-.44-.28-.91-.53-1-1.13l0,0,.9-.07.06,1.2Z" fill="#676767"/>
      <path d="M255.08,134.3c-.27.44-.52.92-1.13,1l0,0c0-.3,0-.6-.07-.9l1.2-.07Z" fill="#5d5d5d"/>
      <path d="M227.76,74c.44.27.93.51,1,1.13l0,0-.91.07-.06-1.2Z" fill="#5d5d5d"/>
      <path d="M146.14,13.8c.28-.44.52-.92,1.13-1l0,0c0,.3,0,.6.07.91l-1.2.06Z" fill="#5d5d5d"/>
      <path d="M256.21,133.34c-.27.44-.52.92-1.13,1l0,0c0-.3,0-.6-.07-.9l1.2-.06Z" fill="#5d5d5d"/>
      <path d="M228.73,75.09c.44.27.92.51,1,1.13l0,0-.9.07-.06-1.2Z" fill="#5d5d5d"/>
      <path d="M180.23,139.29c-.44-.28-.92-.53-1-1.14l0,0,.9-.06.07,1.2Z" fill="#676767"/>
      <path d="M200.16,162.48c-.44-.28-.91-.52-1-1.13l0,0,.9-.07c0,.4,0,.8.07,1.2Z" fill="#676767"/>
      <path d="M229.69,76.22c.45.28.93.52,1,1.13l0,0-.91.06-.06-1.2Z" fill="#5d5d5d"/>
      <path d="M257.34,132.37c-.27.44-.51.92-1.13,1l0,0c0-.3,0-.6-.07-.91l1.21-.06Z" fill="#5d5d5d"/>
      <path d="M230.66,77.35c.45.27.92.52,1,1.14l0,0-.9.07-.06-1.2Z" fill="#5d5d5d"/>
      <path d="M179.26,138.15c-.44-.27-.91-.52-1-1.13l0,0,.9-.06.06,1.19Z" fill="#676767"/>
      <path d="M258.48,131.4c-.28.45-.52.93-1.14,1l0,0-.08-.9,1.21-.06Z" fill="#5d5d5d"/>
      <path d="M231.62,78.49c.44.28.92.52,1,1.13l0,0-.9.07-.06-1.2Z" fill="#5d5d5d"/>
      <path d="M178.3,137c-.44-.27-.92-.52-1-1.13l0,0,.9-.06c0,.39.05.79.07,1.19Z" fill="#676767"/>
      <path d="M135.22,87c-.44-.28-.91-.53-1-1.14l0,0,.9-.06.06,1.19Z" fill="#676767"/>
      <path d="M232.58,79.62c.44.28.92.52,1,1.14l0,0-.91.07-.06-1.2Z" fill="#5d5d5d"/>
      <path d="M127.48,29.87c.27-.44.51-.92,1.13-1l0,0c0,.3,0,.61.07.91l-1.21.06Z" fill="#5d5d5d"/>
      <path d="M136.19,88.1c-.44-.28-.92-.53-1-1.13l0,0,.9-.06.07,1.2Z" fill="#676767"/>
      <path d="M233.55,80.76c.44.27.92.51,1,1.13l0,0-.9.07-.06-1.21Z" fill="#5d5d5d"/>
      <path d="M224.82,160.34c-.28.44-.52.92-1.13,1l0,0-.07-.91,1.2-.06Z" fill="#5d5d5d"/>
      <path d="M201.13,163.61c-.44-.27-.92-.52-1-1.13l0,0,.9-.07.06,1.2Z" fill="#676767"/>
      <path d="M223.69,161.3c-.28.45-.52.92-1.14,1l0,0-.07-.9,1.2-.06Z" fill="#5d5d5d"/>
      <path d="M132.28,25.7c.27-.45.52-.92,1.13-1l0,0,.07.9-1.2.06Z" fill="#5d5d5d"/>
      <path d="M236.75,84.43c.45.27.92.52,1,1.14l0,0-.9.06-.06-1.19Z" fill="#5d5d5d"/>
      <path d="M222.55,162.27c-.27.44-.52.92-1.13,1l0,0-.07-.91,1.21-.06Z" fill="#5d5d5d"/>
      <path d="M133.41,24.73c.28-.44.52-.92,1.14-1l0,0,.07.91-1.2.06Z" fill="#5d5d5d"/>
      <path d="M237.72,85.57c.45.27.92.52,1,1.13l0,0-.9.07-.07-1.2Z" fill="#5d5d5d"/>
      <path d="M174.12,132.22c-.44-.28-.91-.53-1-1.13l0,0,.9-.07.06,1.2Z" fill="#676767"/>
      <path d="M221.42,163.24c-.27.44-.52.91-1.13,1l0,0-.07-.9,1.2-.06Z" fill="#5d5d5d"/>
      <path d="M238.68,86.7c.45.27.92.52,1,1.13l0,0-.9.07-.06-1.2Z" fill="#5d5d5d"/>
      <path d="M173.16,131.09c-.44-.28-.92-.53-1-1.14l0,0,.9-.06.07,1.2Z" fill="#676767"/>
      <path d="M239.65,87.83c.45.27.92.52,1,1.13l0,0-.9.06-.07-1.2Z" fill="#5d5d5d"/>
      <path d="M172.19,130c-.44-.27-.91-.52-1-1.13l0,0,.9-.06.06,1.19Z" fill="#676767"/>
      <path d="M240.61,89c.45.27.93.52,1,1.14l0,0-.9.06L240.59,89Z" fill="#5d5d5d"/>
      <path d="M171.23,128.82c-.45-.27-.92-.52-1-1.13l0,0,.9-.06.07,1.19Z" fill="#676767"/>
      <path d="M241.58,90.1c.44.27.91.52,1,1.13l0,0-.91.06h0l-.07-1.2Z" fill="#5d5d5d"/>
      <path d="M170.26,127.69c-.44-.28-.91-.52-1-1.13l0,0,.9-.07.06,1.2Z" fill="#676767"/>
      <path d="M134.55,23.77c.27-.45.52-.92,1.13-1l0,0,.08.9-1.21.06Z" fill="#5d5d5d"/>
      <path d="M145.19,98.56c-.44-.27-.92-.52-1-1.13l0,0,.9-.07c0,.4,0,.8.07,1.2Z" fill="#676767"/>
      <path d="M242.54,91.23c.45.27.92.52,1,1.13l0,0-.91.07h0l-.07-1.21Z" fill="#5d5d5d"/>
      <path d="M146.15,99.69c-.44-.27-.91-.52-1-1.13l0,0,.9-.07.06,1.2Z" fill="#676767"/>
      <path d="M135.68,22.8c.27-.44.52-.92,1.13-1l0,0,.07.91-1.21.06Z" fill="#5d5d5d"/>
      <path d="M220.29,164.2c-.27.44-.52.92-1.13,1l0,0c0-.3,0-.61-.07-.91l1.2-.06Z" fill="#5d5d5d"/>
      <path d="M169.3,126.56c-.45-.28-.92-.53-1-1.13l0,0,.9-.07.07,1.2Z" fill="#676767"/>
      <path d="M168.33,125.43c-.44-.28-.91-.53-1-1.13l0,0,.9-.06.06,1.2Z" fill="#676767"/>
      <path d="M136.81,21.84c.27-.45.52-.92,1.13-1l0,0,.07.9-1.2.06Z" fill="#5d5d5d"/>
      <path d="M245.76,94.89c.44.28.91.53,1,1.14l0,0-.91.06h0l-.07-1.21Z" fill="#676767"/>
      <path d="M246.72,96c.44.27.91.53,1,1.13l0,0-.91.06h0l-.07-1.2Z" fill="#676767"/>
      <path d="M137.94,20.87c.27-.44.52-.92,1.13-1l0,0,.07.91-1.2.06Z" fill="#5d5d5d"/>
      <path d="M150.33,104.5c-.44-.28-.91-.52-1-1.13l0,0,.9-.07c0,.4.05.8.07,1.2Z" fill="#676767"/>
      <path d="M247.69,97.16c.44.27.91.53,1,1.13l0,0-.91.07h0l-.07-1.21Z" fill="#676767"/>
      <path d="M151.29,105.63c-.44-.28-.91-.52-1-1.13l0,0,.9-.07.06,1.2Z" fill="#676767"/>
      <path d="M248.65,98.29c.45.28.91.53,1,1.14l0,0-.91.07h0l-.07-1.21Z" fill="#676767"/>
      <path d="M165.12,121.75c-.44-.27-.91-.52-1-1.13l0,0,.91-.06.06,1.19Z" fill="#676767"/>
      <path d="M152.26,106.76c-.44-.27-.91-.52-1-1.13l0,0,.9-.07c0,.4.05.8.07,1.2Z" fill="#676767"/>
      <path d="M249.62,99.43c.44.27.91.52,1,1.13l0,0-.91.07h0l-.07-1.21Z" fill="#676767"/>
      <path d="M153.22,107.89c-.44-.27-.91-.52-1-1.13l0,0,.9-.06.06,1.19Z" fill="#676767"/>
      <path d="M250.58,100.56c.44.27.91.52,1,1.13l0,0-.91.06h0l-.07-1.21Z" fill="#676767"/>
      <path d="M164.16,120.62c-.45-.27-.92-.52-1-1.13l0,0,.9-.07.06,1.2Z" fill="#676767"/>
      <path d="M154.19,109c-.44-.28-.91-.53-1-1.14l0,0,.9-.06c0,.4,0,.8.07,1.19Z" fill="#676767"/>
      <path d="M251.54,101.69c.45.28.91.53,1,1.13l0,0-.91.06h0l-.07-1.2Z" fill="#676767"/>
      <path d="M139.07,19.91c.28-.45.52-.92,1.13-1l0,0c0,.3.05.6.07.9l-1.2.06Z" fill="#5d5d5d"/>
      <path d="M155.16,110.16c-.45-.28-.92-.53-1-1.13l0,0,.9-.06.06,1.2Z" fill="#676767"/>
      <path d="M156.12,111.29c-.44-.28-.91-.52-1-1.13l0,0,.9-.07.07,1.2Z" fill="#676767"/>
      <path d="M142.75,16.69c.27-.44.52-.91,1.13-1l0,0,.07.9-1.21.06Z" fill="#5d5d5d"/>
      <path d="M143.88,15.73c.27-.44.52-.92,1.13-1l0,0,.07.91-1.2.06Z" fill="#5d5d5d"/>
      <path d="M145,14.76c.27-.44.52-.92,1.13-1l0,0c0,.3.05.6.07.9l-1.2.06Z" fill="#5d5d5d"/>
      <path d="M254.75,105.37c.45.27.91.53,1,1.13l0,0-.91.07h0l-.07-1.21Z" fill="#676767"/>
      <path d="M255.72,106.5c.44.27.91.53,1,1.13l0,0-.91.07h0l-.07-1.21Z" fill="#676767"/>
      <path d="M163.19,119.49c-.44-.28-.91-.53-1-1.13l0,0,.91-.07.06,1.2Z" fill="#676767"/>
      <path d="M159.33,115c-.44-.27-.91-.52-1-1.13l0,0,.9-.06c0,.39.05.79.07,1.19Z" fill="#676767"/>
      <path d="M256.68,107.63c.44.28.9.54,1,1.14l0,0-.91.06h0l-.07-1.21Z" fill="#676767"/>
      <path d="M259.57,111c.45.27.91.53,1,1.13v0l-.91.07h0l-.07-1.2Z" fill="#676767"/>
      <path d="M160.3,116.1c-.44-.28-.92-.53-1-1.14l0,0,.9-.06.06,1.19Z" fill="#676767"/>
      <path d="M257.64,108.77c.45.27.9.53,1,1.13l0,0-.91.06h0l-.07-1.2Z" fill="#676767"/>
      <path d="M161.26,117.23c-.44-.28-.91-.53-1-1.13l0,0,.91-.06.06,1.2Z" fill="#676767"/>
      <path d="M258.61,109.9c.45.27.9.53,1,1.13l0,0-.91.07h0l-.07-1.2Z" fill="#676767"/>
      <path d="M162.22,118.36c-.44-.28-.91-.53-1-1.13l0,0,.9-.07.06,1.2Z" fill="#676767"/>
      <path d="M153.21,7.69c.27-.44.52-.92,1.13-1l0,0c0,.79-.49,1-1.13,1Z" fill="#5d5d5d"/>
      <path d="M166.09,122.88c-.44-.27-.92-.52-1-1.13l0,0c.78,0,1,.49,1,1.13Z" fill="#676767"/>
      <path d="M147.12,100.82c-.44-.27-.92-.52-1-1.13l0,0c.79,0,1,.49,1,1.13Z" fill="#676767"/>
      <path d="M175.09,133.35c-.44-.28-.92-.52-1-1.13l0,0c.79,0,1,.48,1,1.13Z" fill="#676767"/>
      <path d="M235.79,83.3c.45.27.92.52,1,1.13l0,0c-.78,0-1-.49-1-1.13Z" fill="#5d5d5d"/>
      <path d="M259.61,130.44c-.28.44-.52.92-1.13,1l0,0c0-.78.49-1,1.13-1Z" fill="#5d5d5d"/>
      <path d="M226.8,72.83c.44.27.92.51,1,1.13l0,0c-.78,0-1-.49-1-1.13Z" fill="#5d5d5d"/>
      <path d="M249.14,139.44c-.27.45-.52.92-1.13,1l0,0c0-.78.49-.95,1.13-1Z" fill="#5d5d5d"/>
      <path d="M119.89,70.33c-.46-.26-.92-.52-1-1.13l0,0c.74,0,.92.52,1,1.14Z" fill="#7b7b7b"/>
      <path d="M118.92,69.2c-.46-.26-.92-.52-1-1.13l0,0c.74,0,.93.52,1,1.13Z" fill="#7b7b7b"/>
      <path d="M202.07,163.48l.12,1.05c-.67.05-1-.33-1.06-.92l0,0,.92-.07Z" fill="#676767"/>
      <path d="M131.15,26.66c.27-.44.52-.92,1.13-1l0,0c0,.78-.49,1-1.13,1Z" fill="#5d5d5d"/>
      <path d="M173.08,10c-.83,0-1-.47-1-1.16C172.54,9.17,173,9.42,173.08,10Z" fill="#575757"/>
      <path d="M194.05,155.41c-.44-.28-.91-.52-1-1.13l0,0c.78,0,1,.48,1,1.13Z" fill="#676767"/>
      <path d="M193.27,32.65a1,1,0,0,1-.68-1.19c.46.26.92.54,1,1.14Z" fill="gray"/>
      <path d="M192.6,31.47c-.81,0-1-.48-1-1.15C192.09,30.59,192.55,30.86,192.6,31.47Z" fill="gray"/>
      <path d="M120.69,35.66c.27-.44.51-.92,1.13-1l0,0c0,.79-.49,1-1.14,1Z" fill="#5d5d5d"/>
      <path d="M191.64,30.33c-.81,0-1-.47-1-1.14C191.12,29.46,191.58,29.73,191.64,30.33Z" fill="gray"/>
      <path d="M190.68,29.2c-.68,0-1-.3-.93-1A1.08,1.08,0,0,1,190.68,29.2Z" fill="gray"/>
      <path d="M172.13,8.9c-.5-.06-1.22,0-.66-.85A1,1,0,0,1,172.13,8.9Z" fill="#575757"/>
      <path d="M120.8,71.2a.85.85,0,0,1-.91-.87l0,0a.87.87,0,0,1,.93.84Z" fill="#7b7b7b"/>
      <path d="M244.13,92.9l0,.65a1.08,1.08,0,0,1-.68-1.17l0,0Z" fill="#5d5d5d"/>
      <path d="M193.27,32.65l.3,0c.42.18.26.57.34.88l-.58.05Z" fill="#747474"/>
      <path d="M189.39,27.88c-.59-.06-.64-.49-.65-1C189,27.19,189.63,27.25,189.39,27.88Z" fill="#7b7b7b"/>
      <path d="M188.75,26.93a1.44,1.44,0,0,1-1-.27c0-.16.07-.33.11-.49C188.46,26.11,188.68,26.45,188.75,26.93Z" fill="#7b7b7b"/>
      <path d="M117.33,67.52l.27-.35c.37.18.33.54.38.86l0,0Z" fill="#7b7b7b"/>
      <path d="M121.16,71.18l-.11.21-.25-.19,0-.06.3,0Z" fill="#7b7b7b"/>
      <path d="M193.92,33.8l0-.32.21.1Z" fill="#747474"/>
      <path d="M197.57,40.19c0,.07,0,.14,0,.22l.26.27.71.84c-.42,2.13-.42,2.12-2.45,1.71a.88.88,0,0,0-.28,0c-1-.59-1.32-1.78-2.33-2.31-.8-1-1.52-2-2.4-2.92-1.86-1.88-3.32-4.1-5.35-5.81,0-.66-.89-.93-.79-1.65a.85.85,0,0,1,1,.41c.65.81,1.35,1.57,2,2.38a1.06,1.06,0,0,0,1.45.31c.49-.26.23-.77.16-1.2-.13-.83-1.06-1.34-.88-2.28,1.32.81,2,2.18,3,3.3.29.34.46.73,1,.75l0-.06c.09.58.26,1.09,1,1.15v0a1.88,1.88,0,0,0,1,1.44v0l.32.3h0a1.12,1.12,0,0,0,.66.91l.26.22a1.31,1.31,0,0,0,.71.91l0,.21.26.27Z" fill="#1e1e1e"/>
      <path d="M188.7,30.18c-.18.94.75,1.45.88,2.28.07.43.33.94-.16,1.2a1.06,1.06,0,0,1-1.45-.31c-.64-.81-1.34-1.57-2-2.38a.85.85,0,0,0-1-.41l0,0c0-.7-.12-1.2-1-1.14h0c0-.73-.19-1.22-1-1.13l-.23-.19c.06-.65-.12-1.07-.89-1a.19.19,0,0,1-.08-.17c0-.52,0-1-.73-.94l-.23-.19c0-.53,0-1-.74-.94l-.23-.19c0-.52,0-1-.74-.95l-.22-.18c0-.69-.06-1.31-1-1.21h0a1.64,1.64,0,0,0-.33-1.21c1.2-.84,1.53-1.71.25-2.82a10,10,0,0,1-1.7-2c-.74-1.12-2.1-1.81-2.34-3.28l0,0c2.39,2.42,4.89,4.72,6.73,7.61l.26.31c.24.27.47.55.7.82l.27.31a2.29,2.29,0,0,1,.07.28c0,.66.17,1.17,1,1.15h0c0,.66.17,1.17,1,1.14h0a1.45,1.45,0,0,0,.28,1q1.86,2.14,3.69,4.32a.88.88,0,0,0,.89.36Z" fill="#242424"/>
      <path d="M188.67,30.2a.88.88,0,0,1-.89-.36q-1.83-2.18-3.69-4.32a1.45,1.45,0,0,1-.28-1A29.69,29.69,0,0,1,188.67,30.2Z" fill="#1e1e1e"/>
      <path d="M169.66,8.07l.29.11c.61.88,1.63,1.44,2,2.52l0,0A3.27,3.27,0,0,1,169.66,8.07Z" fill="#242424"/>
      <path d="M172.89,11.83c.45.27.9.54,1,1.13l0,0a.91.91,0,0,1-.92-.54l0-.6Z" fill="#242424"/>
      <path d="M182.86,23.44c-.81,0-1-.49-1-1.15C182.33,22.57,182.78,22.84,182.86,23.44Z" fill="#1e1e1e"/>
      <path d="M183.82,24.57c-.8,0-1-.48-1-1.14C183.3,23.7,183.75,24,183.82,24.57Z" fill="#1e1e1e"/>
      <path d="M171.92,10.7c.46.27.9.54,1,1.13l0,0c-.77,0-1-.49-1-1.13Z" fill="#242424"/>
      <path d="M181.81,22l-.27-.31Z" fill="#1e1e1e"/>
      <path d="M180.84,20.88l-.26-.31Z" fill="#1e1e1e"/>
      <path d="M195.84,43.25a1,1,0,0,1,.29,0c2,.41,2,.42,2.45-1.71l.27,0h0c.07.6.51.88,1,1.13h0a1,1,0,0,0,.65.86c2.2,2.69,4.32,5.45,6.78,7.92.37.51.65,1.11,1.27,1.4l2.25,2.53c.13.48.33.9.94.85h0c0,.62.2,1.14,1,1.14h0c0,.62.2,1.14,1,1.15v0c0,.62.2,1.14,1,1.15v0c0,.62.19,1.15,1,1.15h0c0,.73.45,1.11,1,1.44l0,0c.15.73.77,1,1.3,1.43h0a1.67,1.67,0,0,0,1,1.14h0a1.67,1.67,0,0,0,1,1.14h0a1.67,1.67,0,0,0,1,1.14h0c0,.19,0,.38.07.58-1.48-.21-1.8.09-1.79,1.61a2.19,2.19,0,0,1-.23.68l-.57-.5-.34-.44-.63-.69-.33-.44-3.53-3.86c-.87-1.34-2.17-2.29-3.09-3.63-1.93-2.8-4.7-4.9-6.59-7.77a10.46,10.46,0,0,0-2.9-3.07c-.13-.71-.7-1.13-1.1-1.67C198.5,46.19,196.9,45,195.84,43.25Z" fill="#191919"/>
      <path d="M208.5,52.86c-.62-.29-.9-.89-1.27-1.4l.11-.4C207.8,51.61,208.87,51.77,208.5,52.86Z" fill="#747474"/>
      <path d="M194.69,36.74a1.88,1.88,0,0,1-1-1.44A1.16,1.16,0,0,1,194.69,36.74Z" fill="#747474"/>
      <path d="M193.68,35.32c-.7-.06-.87-.57-1-1.15C193.31,34.33,193.8,34.57,193.68,35.32Z" fill="#747474"/>
      <path d="M216.55,62.2c-.55-.33-1-.71-1-1.44l.64.24A1.78,1.78,0,0,1,216.55,62.2Z" fill="#7b7b7b"/>
      <path d="M215.56,60.77c-.78,0-.93-.53-1-1.15A1.28,1.28,0,0,1,215.56,60.77Z" fill="#7b7b7b"/>
      <path d="M214.59,59.64c-.77,0-.93-.53-1-1.15A1.26,1.26,0,0,1,214.59,59.64Z" fill="#7b7b7b"/>
      <path d="M213.63,58.51c-.77,0-.93-.53-1-1.15A1.28,1.28,0,0,1,213.63,58.51Z" fill="#7b7b7b"/>
      <path d="M212.66,57.37c-.77,0-.93-.52-1-1.14C212.22,56.44,212.64,56.74,212.66,57.37Z" fill="#7b7b7b"/>
      <path d="M199.82,42.68c-.48-.25-.92-.53-1-1.13C199.67,41.48,199.84,42,199.82,42.68Z" fill="#747474"/>
      <path d="M198.85,41.56l-.27,0-.71-.84a.34.34,0,0,0-.05-.26C198.68,40.34,198.88,40.84,198.85,41.56Z" fill="#747474"/>
      <path d="M211.69,56.24c-.61,0-.81-.37-.94-.85A.79.79,0,0,1,211.69,56.24Z" fill="#7b7b7b"/>
      <path d="M200.45,43.54a1,1,0,0,1-.65-.86C200.31,42.75,201,42.65,200.45,43.54Z" fill="#747474"/>
      <path d="M197.57,40.19l-.67-.65a.32.32,0,0,0,0-.25C197.58,39.21,197.58,39.7,197.57,40.19Z" fill="#747474"/>
      <path d="M196.61,39.06a1.31,1.31,0,0,1-.71-.91C196.61,38.08,196.62,38.57,196.61,39.06Z" fill="#747474"/>
      <path d="M195.64,37.93A1.12,1.12,0,0,1,195,37C195.68,37,195.64,37.46,195.64,37.93Z" fill="#747474"/>
      <path d="M197.82,40.42a.34.34,0,0,1,.05.26l-.26-.27Z" fill="#191919"/>
      <path d="M196.86,39.29a.32.32,0,0,1,0,.25l-.26-.27Z" fill="#191919"/>
      <path d="M195,37l-.32-.3Z" fill="#747474"/>
      <path d="M139.37,90.54A3.19,3.19,0,0,1,137.12,88h0l1.2.87v0c.08.59.53.88,1,1.15h0l.1.55Z" fill="#7f8086"/>
      <path d="M136.22,88.07l-.07-1.2,0,0c.45.27.9.54,1,1.14h0Z" fill="#7f8086"/>
      <path d="M145.15,97.33l-.9.07-.06-1.2h0l.89.59h0c0,.18.07.36.1.55Z" fill="#7f8086"/>
      <path d="M144.19,96.2c-.8,0-1-.48-1-1.14h0l.89.6h0l.09.55Z" fill="#7f8086"/>
      <path d="M143.23,95.06c-.81,0-1-.47-1-1.13h0l.89.59h0l.1.55Z" fill="#7f8086"/>
      <path d="M142.26,93.93c-.8,0-1-.47-1-1.13h0l.89.59h0l.09.55Z" fill="#7f8086"/>
      <path d="M141.3,92.8c-.81,0-1-.47-1-1.13h0l.89.59h0l.1.55Z" fill="#7f8086"/>
      <path d="M140.33,91.67c-.8,0-1-.47-1-1.13h0l.89.59h0l.09.55Z" fill="#7f8086"/>
      <path d="M171.9,10.72c0,.64.2,1.14,1,1.13l0,.6a2.83,2.83,0,0,0-.66.3c-6.32,5.45-12.61,10.94-19,16.35a104.46,104.46,0,0,1-8.75,7.22c-1.81-.42-3.17-1.75-4.84-2.45a1.19,1.19,0,0,1,.55-1.25c1.37-1.11,2.7-2.27,4-3.46.29-.26.88-.61.5-1.06s-.8-.07-1.16.24c-.74.65-1.46,1.32-2.25,1.9-1.16.86-1.93,2.24-3.48,2.56l-6.57-4,.24-1h0c.67,0,1.19-.16,1.14-1v0a3.17,3.17,0,0,0,2.56-2.27l0,0c.67,0,1.19-.16,1.15-1v0c.67,0,1.18-.16,1.14-1v0c.67,0,1.18-.16,1.14-1v0c.67,0,1.19-.16,1.14-1v0c.67,0,1.19-.16,1.15-1l0,0c.67,0,1.19-.16,1.15-1l0,0c.67,0,1.19-.16,1.15-1v0a3.15,3.15,0,0,0,2.55-2.27v0c.67,0,1.19-.16,1.14-1v0c.67,0,1.19-.17,1.14-1v0c.67,0,1.19-.16,1.15-1l0,0c.67,0,1.19-.17,1.15-1v0c.67,0,1.18-.16,1.14-1v0c.67,0,1.18-.17,1.14-1v0c.67,0,1.19-.16,1.14-1v0c.67,0,1.19-.17,1.15-1l0,0A2.75,2.75,0,0,0,157,6.26h0a4.17,4.17,0,0,0,1.3-.22,10.62,10.62,0,0,1,8.55.48,2.76,2.76,0,0,0,1.68.51c.4.32.6.86,1.14,1A3.27,3.27,0,0,0,171.9,10.72Z" fill="#353535"/>
      <path d="M168.52,7a2.76,2.76,0,0,1-1.68-.51,10.62,10.62,0,0,0-8.55-.48,4.17,4.17,0,0,1-1.3.22c1.85-1.43,4-1.42,6.21-1.52a.84.84,0,0,0,1-.08c.93.76,2.14.85,3.2,1.3V6c.12.29.4.26.63.32Z" fill="#191919"/>
      <path d="M163.2,4.75c-2.17.1-4.36.09-6.21,1.52h0l-1.42.46h0c-.21-.72,1-.59.79-1.28,1.33,0,2.47-.76,3.79-.95a9.76,9.76,0,0,1,3-.1Z" fill="#7f8086"/>
      <path d="M167.41,6c-1.06-.45-2.27-.54-3.2-1.3C165.41,4.77,166.7,4.68,167.41,6Z" fill="#7f8086"/>
      <path d="M168,6.27c-.23-.06-.51,0-.63-.32C167.68,5.93,167.93,6,168,6.27Z" fill="#7f8086"/>
      <path d="M110.19,54.11l-.07,0c.58-.39.25-.94.13-1.33a2.91,2.91,0,0,1,.32-2.38,11.1,11.1,0,0,0,2.26,6.59c4.78,5.58,9.58,11.12,14.36,16.69,5.13,6,10.23,12,15.37,18q10.8,12.54,21.61,25.06c4.79,5.56,9.53,11.16,14.31,16.72L202.27,161c1.93,2.23,3.78,4.56,7,5.06.31,0,.38.28.41.54-1.54.33-2.78-.72-4.21-.92l0,0c-.65-.56-1.07-1.5-2.16-1.39h0c0-.85-.4-1.38-1.31-1.39h0c0-.67-.16-1.18-1-1.14h0c0-.67-.17-1.18-1-1.14h0c0-.67-.16-1.19-1-1.15l0,0c0-.67-.17-1.19-1-1.15h0c0-.66-.16-1.18-1-1.14h0c0-.67-.17-1.18-1-1.14h0c0-.67-.16-1.18-1-1.14h0c0-.67-.17-1.18-1-1.15v0a3.14,3.14,0,0,0-2.26-2.56h0c0-.66-.17-1.18-1-1.14h0c0-.67-.16-1.18-1-1.14h0c0-.67-.17-1.18-1-1.14h0c0-.67-.16-1.18-1-1.14h0c0-.67-.17-1.18-1-1.15v0c0-.67-.16-1.19-1-1.15h0c0-.66-.17-1.18-1-1.14h0a3.13,3.13,0,0,0-2.26-2.55h0c0-.67-.17-1.18-1-1.14h0c0-.67-.16-1.18-1-1.14h0c0-.67-.17-1.19-1-1.15h0c0-.66-.16-1.18-1-1.14h0c0-.67-.17-1.18-1-1.14h0c0-.67-.16-1.18-1-1.14h0c0-.67-.17-1.18-1-1.14h0c0-.67-.16-1.18-1-1.15v0c0-.87-.38-1.39-1.29-1.43v0c0-.67-.16-1.19-1-1.15h0c0-.66-.16-1.18-1-1.14h0c0-.67-.16-1.18-1-1.14h0c0-.67-.16-1.18-1-1.14h0c0-.67-.16-1.18-1-1.15l0,0c0-.67-.16-1.19-1-1.15h0c0-.66-.16-1.18-1-1.14h0c0-.67-.17-1.18-1-1.14h0a3.13,3.13,0,0,0-2.26-2.55h0c0-.67-.17-1.18-1-1.14h0c0-.67-.16-1.19-1-1.15l0,0c0-.67-.17-1.19-1-1.15h0c0-.66-.16-1.18-1-1.14h0c0-.67-.17-1.18-1-1.14h0c0-.67-.16-1.18-1-1.14h0c0-.67-.17-1.18-1-1.14h0a3.14,3.14,0,0,0-2.26-2.56h0c0-.66-.17-1.18-1-1.14h0c0-.67-.16-1.18-1-1.14h0c0-.67-.17-1.18-1-1.14h0c0-.67-.16-1.18-1-1.14h0c0-.67-.17-1.18-1-1.15v0c0-.67-.16-1.19-1-1.15h0c0-.66-.17-1.18-1-1.14h0c0-.67-.16-1.18-1-1.14h0c0-.87-.39-1.39-1.3-1.42h0c0-.67-.17-1.18-1-1.14h0c0-.67-.16-1.18-1-1.14h0c0-.67-.17-1.19-1-1.15h0c0-.66-.16-1.18-1-1.14h0c0-.67-.17-1.18-1-1.14h0c0-.67-.16-1.18-1-1.14h0c0-.67-.17-1.18-1-1.14h0c0-.67-.16-1.18-1-1.15l0,0a3.17,3.17,0,0,0-2.27-2.56h0c0-.66-.16-1.18-1-1.14h0c0-.67-.16-1.18-1-1.14h0c0-.67-.16-1.18-1-1.14h0c0-.67-.16-1.18-1-1.14h0c0-.67-.16-1.19-1-1.15h0c0-.65-.16-1.16-.95-1.15,0-.66-.19-1.17-1-1.12h0a3.13,3.13,0,0,0-2.26-2.55h0c0-.67-.17-1.18-1-1.14h0c0-.67-.16-1.18-1-1.15l0,0c0-.67-.17-1.19-1-1.15h0c0-.66-.16-1.18-1-1.14h0c0-.67-.17-1.18-1-1.14h0c0-.67-.16-1.18-1-1.14h0c0-.67-.17-1.18-1-1.14h0c0-.67-.16-1.19-1-1.15h0a1.23,1.23,0,0,0-1.3-1.42h0c0-.66-.17-1.18-1-1.14h0c0-.67-.16-1.18-1-1.14h0c0-.67-.17-1.18-1-1.14h0c0-.67-.16-1.18-1-1.14h0c0-.67-.17-1.18-1-1.15h0c0-.66-.16-1.17-1-1.15h0c-.08-.47.16-1.15-.71-1.13l0,0c-.11-.76.12-1.74-1.14-1.76-.06-.27-.13-.54-.2-.81C110.6,54.62,110.52,54.36,110.19,54.11Z" fill="#2f2f2f"/>
      <path d="M110.57,50.35a2.91,2.91,0,0,0-.32,2.38c.12.39.45.94-.13,1.33-.94-1.77-.48-3.57-.12-5.36a14,14,0,0,1,.67-2,.19.19,0,0,0,0-.18c.1-.15.19-.3.28-.45V46l.54-.24C111.18,47.29,110.87,48.82,110.57,50.35Z" fill="#1e1e1e"/>
      <path d="M110.42,55.72c1.26,0,1,1,1.14,1.76l-.83-.62h0c0-.25.06-.56-.34-.58l0,0Z" fill="#1e1e1e"/>
      <path d="M110.19,54.11c.33.25.41.51,0,.8Z" fill="#1e1e1e"/>
      <path d="M135.19,85.74l-.9.06-.06-1.2h0l.88.59h0l.09.55Z" fill="#7f8086"/>
      <path d="M134.23,84.6c-.81,0-1-.47-1-1.13h0l.89.59h0c0,.18.07.37.1.55Z" fill="#7f8086"/>
      <path d="M133.26,83.47c-.81,0-1-.48-1-1.13h0l.88.59h0l.09.55Z" fill="#7f8086"/>
      <path d="M132.3,82.34c-.81,0-1-.48-1-1.14h0l.89.6,0,0c0,.19.07.37.1.56Z" fill="#7f8086"/>
      <path d="M131.33,81.2,130.4,81h0l0-.93.88.6h0l.09.55Z" fill="#7f8086"/>
      <path d="M110.73,56.86l.83.62,0,0a.19.19,0,0,0,0,.18l-.17.35-.05.05-.61,0C110.76,57.67,110.74,57.26,110.73,56.86Z" fill="#7b7b7b"/>
      <path d="M110.4,56.29c.4,0,.32.33.34.58A.53.53,0,0,1,110.4,56.29Z" fill="#7b7b7b"/>
      <path d="M205.43,165.71c1.43.2,2.67,1.25,4.21.92a10,10,0,0,1,3.81.24c-1.12,1-2.5.39-3.74.61l-.52,0-3.68-1.22Z" fill="#191919"/>
      <path d="M205.51,166.28l3.68,1.22a.75.75,0,0,1-.3.69c-.38-.73-1.13-.62-1.76-.79S205.73,167.13,205.51,166.28Z" fill="#7b7b7b"/>
      <path d="M203.29,164.34c1.09-.11,1.51.83,2.16,1.39-1.07.72-1.35-.58-2-.8Z" fill="#1e1e1e"/>
      <path d="M261.24,114.34c.24.34.47.69.7,1l.17.3c.05.34.05.71.46.87v0a5.43,5.43,0,0,0,.28,1.59,7.59,7.59,0,0,1,0,5c-.73-.54-.45-1.36-.49-2a10.61,10.61,0,0,0-2.51-6.22c-5-5.92-10.05-11.71-15.06-17.59-1.66-1.94-3.8-3.61-4-6.46l.92.55h0c.06.61.51.89,1,1.15h0a5.78,5.78,0,0,0,2,2.27h0c.13.75.75,1.05,1.3,1.42h0c.07.61.5.89,1,1.14h0c.06.61.5.89,1,1.15h0c.06.61.51.88,1,1.14h0c.06.61.5.89,1,1.14h0c.06.61.51.89,1,1.14h0a1.43,1.43,0,0,0,1,1.14h0c.05.62.5.9,1,1.14h0c0,.62.49.9,1,1.15h0c.11.76.74,1.06,1.3,1.42h0c.05.62.5.89,1,1.14h0a1.38,1.38,0,0,0,1,1.14h0c0,.63.49.9,1,1.14h0c0,.63.49.91,1,1.14h0c0,.62.49.9,1,1.13h0c0,.62.49.9,1,1.14h0A1.1,1.1,0,0,0,261.24,114.34Z" fill="#242424"/>
      <path d="M262.79,123.09a7.59,7.59,0,0,0,0-5,5.43,5.43,0,0,1-.28-1.59c1.33,1.77,1.1,3.87,1.29,5.89-.56.35-.32,1.13-.81,1.52h0l-.26-.26Z" fill="#7b7b7b"/>
      <path d="M262.57,116.54c-.41-.16-.41-.53-.46-.87C262.6,115.78,262.55,116.18,262.57,116.54Z" fill="#7b7b7b"/>
      <path d="M130.38,80.05l0,.93a3.62,3.62,0,0,1-2.27-2.52l0,0c.43.15.72.64,1.26.5h0c0,.67.16,1.18,1,1.15Z" fill="#676767"/>
      <path d="M209.71,167.48c1.24-.22,2.62.36,3.74-.61l.12,0,.08-.08.39-.28-.09,0v.1c.23.41.53.35.85.13l.83-.3,0,.43C214,168.18,212,168,210.11,168,209.85,168,209.76,167.72,209.71,167.48Z" fill="#7b7b7b"/>
      <path d="M215.67,166.86c0-.14,0-.29,0-.43l.6-.47.8-.17,0,.05-.22.94Z" fill="#7f8086"/>
      <path d="M262.36,127.26l-1.06.2c.21-.56.41-1.12.61-1.68l.32-.4a.39.39,0,0,0,.28.05l0,0C262.47,126.05,262.41,126.65,262.36,127.26Z" fill="#7b7b7b"/>
      <path d="M262.78,124.55c0,.33.13.68-.25.9l0,0-.21-.23.21-.63h.13l.13,0Z" fill="#7b7b7b"/>
      <path d="M263,123.93a.56.56,0,0,1-.26.62h0c0-.24,0-.49.25-.62Z" fill="#7b7b7b"/>
      <path d="M260.59,113.39c-.49-.24-.94-.52-1-1.14l.91-.07Z" fill="#7f8086"/>
      <path d="M261.24,114.34a1.1,1.1,0,0,1-.67-1C261.28,113.37,261.22,113.88,261.24,114.34Z" fill="#7f8086"/>
      <path d="M129.43,78.93c-.54.14-.83-.35-1.26-.5,0-.3,0-.6,0-.9h0l1.2.87h0C129.36,78.56,129.39,78.75,129.43,78.93Z" fill="#7f8086"/>
      <path d="M126.25,76.47l-.06-1.2h0l.89.59h0c0,.18.07.37.1.55h0Z" fill="#7f8086"/>
      <path d="M128.12,77.53c-.81,0-1-.47-1-1.13h0c.45.27.9.53,1,1.13Z" fill="#7f8086"/>
      <path d="M142.77,16.72l1.21-.06h0l-.87,1.21v0l-.55.09h0Z" fill="#7f8086"/>
      <path d="M140.3,19.87l-.07-.9,1.21-.06h0l-.59.89,0,0-.56.09Z" fill="#7f8086"/>
      <path d="M141.44,18.91c-.06-.83.46-1,1.13-1h0l-.6.89,0,0-.56.1Z" fill="#7f8086"/>
      <path d="M227.05,158.38l-1.2.06h0l.85-1.21h0l.56-.07h0Z" fill="#7f8086"/>
      <path d="M229.52,155.23l.08.91-1.21.05h0l.57-.9h0l.57-.07Z" fill="#7f8086"/>
      <path d="M228.39,156.19c.05.83-.46,1-1.13,1h0l.57-.9h0l.56-.06Z" fill="#7f8086"/>
      <path d="M184.12,143.78c0-.4-.05-.79-.07-1.19l0,0,1.2.87h0l.09.55h0Z" fill="#7f8086"/>
      <path d="M187.26,146.26l-.9.07-.06-1.21h0l.88.6v0l.09.55Z" fill="#7f8086"/>
      <path d="M186.3,145.12c-.8,0-1-.47-1-1.13h0l.89.59h0c0,.19.06.37.1.55Z" fill="#7f8086"/>
      <path d="M147.15,100.79c0-.64-.18-1.15-1-1.13l-.06-1.2h0l1.21.87h0c.08.59.53.87,1,1.14h0l.09.55h0Z" fill="#7f8086"/>
      <path d="M150.29,103.27l-.9.07-.06-1.21h0l.88.6v0l.09.55Z" fill="#7f8086"/>
      <path d="M149.33,102.13c-.8,0-1-.47-1-1.13h0l.89.59h0c0,.19.06.37.1.55Z" fill="#7f8086"/>
      <path d="M249.11,139.42c-.64,0-1.14.18-1.13,1l-1.2.06h0c.28-.4.56-.81.85-1.21h0c.62,0,.89-.49,1.13-1h0l.56-.07h0Z" fill="#7f8086"/>
      <path d="M251.59,136.26l.07.91-1.21.05h0c.18-.3.37-.6.56-.9h0l.57-.07Z" fill="#7f8086"/>
      <path d="M250.45,137.22c.05.83-.46,1-1.13,1h0l.57-.89h0l.57-.07Z" fill="#7f8086"/>
      <path d="M120.71,35.69c.65,0,1.15-.18,1.14-1l1.2-.06h0l-.85,1.22h0c-.62,0-.89.48-1.13,1h0l-.57.07h0Z" fill="#7f8086"/>
      <path d="M118.24,38.84l-.07-.91,1.21,0h0c-.19.3-.38.6-.56.9h0l-.57.07Z" fill="#7f8086"/>
      <path d="M119.38,37.88c-.06-.83.46-1,1.13-1h0c-.18.3-.37.6-.56.9h0l-.57.06Z" fill="#7f8086"/>
      <path d="M226.77,72.86c0,.64.18,1.15,1,1.13l.06,1.2h0l-1.23-.84h0c.07-.55-.48-.73-.67-1.12l0-.32Z" fill="#7f8086"/>
      <path d="M223.62,70.38l.9-.06.06,1.2h0l-.9-.56h0l-.06-.57Z" fill="#7b7b7b"/>
      <path d="M224.58,71.52a.82.82,0,0,1,1,.8l-.2.22c-.24-.15-.48-.3-.73-.44h0l-.06-.57Z" fill="#7b7b7b"/>
      <path d="M225.87,72.92l0,.32a1,1,0,0,0-.29,0h0l-.24-.69.2-.22A.65.65,0,0,1,225.87,72.92Z" fill="#7b7b7b"/>
      <path d="M254.8,106.6c-.56-.36-1.19-.66-1.3-1.42l1.23.21Z" fill="#7f8086"/>
      <path d="M252.55,104.05c-.48-.24-.93-.52-1-1.14l.91-.06Z" fill="#7f8086"/>
      <path d="M253.52,105.19c-.49-.25-.94-.53-1-1.15C253.34,104,253.51,104.53,253.52,105.19Z" fill="#7f8086"/>
      <path d="M237.52,149.38l-1.2.06h0l.84-1.21h0l.57-.07h0Z" fill="#7f8086"/>
      <path d="M240,146.23l.07.91-1.21.05h0l.57-.9h0l.57-.07Z" fill="#7f8086"/>
      <path d="M238.85,147.19c.06.83-.46,1-1.13,1h0l.56-.9h0l.57-.06Z" fill="#7f8086"/>
      <path d="M156.15,111.26l-.07-1.2h0l1.2.87h0l.09.55h0Z" fill="#7f8086"/>
      <path d="M159.3,113.74l-.91.06,0-1.2h0l.88.59h0l.09.55Z" fill="#7f8086"/>
      <path d="M158.34,112.6c-.81,0-1-.47-1-1.13h0l.89.59h0c0,.18.07.36.1.55Z" fill="#7f8086"/>
      <path d="M153.24,7.72c.64,0,1.15-.18,1.13-1l1.21,0h0l-.88,1.19,0,0c-.6.08-.88.52-1.15,1v0L153,9h0Z" fill="#7f8086"/>
      <path d="M150.77,10.87,150.7,10l1.2-.05h0l-.59.89v0l-.55.09Z" fill="#7f8086"/>
      <path d="M151.9,9.91c-.05-.83.46-1,1.14-1h0l-.59.89v0l-.55.1Z" fill="#7f8086"/>
      <path d="M175.12,133.32c0-.65-.18-1.15-1-1.13l-.06-1.2v0l1.2.88v0c.08.59.53.88,1,1.15h0c0,.18.07.36.1.55h0Z" fill="#7f8086"/>
      <path d="M178.26,135.8l-.9.06-.06-1.2h0l.89.59h0c0,.18.07.37.1.55Z" fill="#7f8086"/>
      <path d="M177.3,134.66c-.8,0-1-.47-1-1.13h0l.89.59h0l.09.55Z" fill="#7f8086"/>
      <path d="M131.18,26.69c.64,0,1.15-.19,1.13-1l1.2-.06h0l-.87,1.21v0c-.6.07-.87.52-1.14,1h0l-.55.09h0Z" fill="#7f8086"/>
      <path d="M128.71,29.84l-.07-.91,1.2-.05h0l-.57.9h0l-.56.07Z" fill="#7f8086"/>
      <path d="M129.84,28.88c-.05-.83.46-1,1.13-1h0l-.57.9h0l-.56.06Z" fill="#7f8086"/>
      <path d="M261.91,125.78c-.2.56-.4,1.12-.61,1.68v.12l-.41.37,0,0-.51.12C260.48,127,260.77,126.1,261.91,125.78Z" fill="#191919"/>
      <path d="M260.4,128l.51-.12-.22,1.23-.91,0h0l.62-1.14Z" fill="#7f8086"/>
      <path d="M260.89,128l.41-.37Z" fill="#7b7b7b"/>
      <path d="M111.48,45.76l-.54.24.19-1.66.88-.06a2.62,2.62,0,0,1,0,.28l-.22.64Z" fill="#7b7b7b"/>
      <path d="M111,46.12c-.09.15-.18.3-.28.45C110.77,46.42,110.86,46.27,111,46.12Z" fill="#7b7b7b"/>
      <path d="M219.06,164.23l.07.91-1.21.05h0l.58-.89h0l.56-.07Z" fill="#7f8086"/>
      <path d="M217.92,165.19c.07.67-.38.68-.85.65l0-.05.3-.55h0l.58,0Z" fill="#7f8086"/>
      <path d="M217.83,63.61c-.53-.39-1.15-.7-1.3-1.43l1.23.22Z" fill="#7b7b7b"/>
      <path d="M244.52,94.72a5.78,5.78,0,0,1-2-2.27l.91-.07a1.08,1.08,0,0,0,.68,1.17A1.89,1.89,0,0,1,244.52,94.72Z" fill="#7f8086"/>
      <path d="M245.8,96.13c-.55-.37-1.17-.67-1.3-1.42l1.23.21Z" fill="#7f8086"/>
      <path d="M121.15,71.11l-.3,0a.87.87,0,0,0-.93-.84c0-.62-.23-1.11-1-1.14,0-.61-.23-1.11-1-1.13,0-.32,0-.68-.38-.86.3-.36.69-.68.55-1.23l0,0,1.2.87h0c.09.59.53.87,1,1.15h0c.08.58.52.87,1,1.14h0a1.65,1.65,0,0,0,1,1.14h0l.09.55v0C121.92,70.81,121.35,70.37,121.15,71.11Z" fill="#7f8086"/>
      <path d="M117.25,66l-.06-1.2h0l.89.59h0c0,.19.06.37.1.55l0,0Z" fill="#7f8086"/>
      <path d="M112.51,42.76l1.2-.06h0l-.57.88-.55.09h0Z" fill="#7f8086"/>
      <path d="M112,44.56a2.62,2.62,0,0,0,0-.28l.31-.29h0Z" fill="#7f8086"/>
      <path d="M112.32,44l.27-.32h0l-.27.32Z" fill="#7f8086"/>
      <path d="M166.11,122.85c0-.64-.18-1.14-1-1.13l-.06-1.19v0l1.2.87h0c.08.59.53.87,1,1.14h0c0,.18.07.37.1.55l0,0Z" fill="#7f8086"/>
      <path d="M168.3,124.2l-.9.06c0-.39-.05-.79-.07-1.19l0,0,.88.59h0l.09.55Z" fill="#7f8086"/>
      <path d="M194.08,155.38c0-.65-.18-1.15-1-1.13,0-.4,0-.8-.07-1.2h0l1.2.87v0a1.62,1.62,0,0,0,1,1.15h0c0,.18.07.36.1.55h0Z" fill="#7f8086"/>
      <path d="M196.27,156.73l-.91.06-.06-1.2h0l.88.59h0l.09.55Z" fill="#7f8086"/>
      <path d="M235.77,83.33c0,.64.18,1.14,1,1.13l.06,1.19h0l-.88-.57c-.38-.51-.61-1.18-1.31-1.39h0l-.06-.57h0Z" fill="#7f8086"/>
      <path d="M233.58,82l.9-.07.06,1.2h0l-.9-.56h0l-.06-.58Z" fill="#7f8086"/>
      <path d="M123.29,71.88l-.9.06c0-.4,0-.8-.07-1.19l0,0,.89.59h0c0,.18.07.37.1.55Z" fill="#7f8086"/>
      <path d="M259.58,130.41c-.64,0-1.15.19-1.13,1l-1.21.06h0l.84-1.22h0c.62,0,.9-.48,1.13-1h0l.56-.06h0C259.71,129.59,259.64,130,259.58,130.41Z" fill="#7f8086"/>
      <path d="M202,163c.91,0,1.27.54,1.31,1.39l-1.22-.87v0Z" fill="#1e1e1e"/>
      <path d="M112.42,60.35l-.07-1.19h0l.91.58v0c0,.19.09.38.13.57Z" fill="#7b7b7b"/>
      <path d="M114.29,61.41l-.9.07c0-.34-.08-.7.27-.94l.57.32h0c0,.18.06.36.1.55Z" fill="#7f8086"/>
      <path d="M114.23,60.86l-.57-.32-.28-.26c0-.19-.09-.38-.13-.57C114.06,59.68,114.24,60.19,114.23,60.86Z" fill="#1e1e1e"/>
      <path d="M234.12,152.28l-1.2.06h0l.57-.9h0l.56-.07h0Z" fill="#7f8086"/>
      <path d="M235.18,150.41l.07.9-1.2.06h0l.57-.9h0l.57-.06Z" fill="#7f8086"/>
      <path d="M115.91,39.86l1.2,0h0l-.57.9h0l-.56.07h0Z" fill="#7f8086"/>
      <path d="M114.85,41.74l-.07-.91,1.2-.06h0l-.57.9h0l-.56.07Z" fill="#7f8086"/>
      <path d="M113.71,42.7l-.07-.91,1.21-.06v0l-.57.89h0l-.57.07Z" fill="#7f8086"/>
      <path d="M236.32,149.44l.07.91-1.21.06h0c.27-.45.53-.9,1.13-1Z" fill="#7f8086"/>
      <path d="M192.15,153.12l-.06-1.2,0,0c.44.27.9.54,1,1.14h0Z" fill="#7f8086"/>
      <path d="M117,38.9l1.2-.06h0l-.57.9h0l-.57.06h0C117.09,39.5,117.06,39.2,117,38.9Z" fill="#7f8086"/>
      <path d="M233,153.24l-1.2.06h0l.57-.9h0l.56-.06h0C232.94,152.64,233,152.94,233,153.24Z" fill="#7f8086"/>
      <path d="M191.19,152c0-.39,0-.79-.07-1.19l0,0,.89.59h0c0,.19.06.37.1.55l0,0Z" fill="#7f8086"/>
      <path d="M148.43,11.9l1.21-.06h0l-.59.89,0,0-.56.09h0Z" fill="#7f8086"/>
      <path d="M147.37,13.77l-.07-.91,1.2-.06h0c-.19.3-.39.59-.59.89v0l-.55.1Z" fill="#7f8086"/>
      <path d="M149.56,10.93l1.21-.06h0c-.2.3-.4.59-.59.89v0l-.56.1h0C149.61,11.53,149.59,11.23,149.56,10.93Z" fill="#7f8086"/>
      <path d="M190.22,150.85l-.06-1.19,0,0,.88.59h0l.09.55,0,0Z" fill="#7f8086"/>
      <path d="M189.26,149.72c0-.4,0-.8-.07-1.2h0l.89.59h0c0,.18.06.37.1.55l0,0Z" fill="#7f8086"/>
      <path d="M241.12,145.27l.07.9-1.2.06h0l.57-.9h0l.56-.06Z" fill="#7f8086"/>
      <path d="M231.86,154.21l-1.2.06h0c.19-.3.38-.6.56-.9h0l.57-.07h0C231.81,153.6,231.84,153.91,231.86,154.21Z" fill="#7f8086"/>
      <path d="M242.25,144.3l.07.91-1.2.06h0l.57-.9h0l.56-.07Z" fill="#7f8086"/>
      <path d="M112.35,59.16l-.89.05c0-.39,0-.79-.08-1.18l.05-.05.25,0,.62.57h0l.06.58Z" fill="#7b7b7b"/>
      <path d="M188.29,148.59l-.06-1.2h0l.88.59h0l.09.55h0Z" fill="#7f8086"/>
      <path d="M230.73,155.17l-1.2.06h0c.18-.3.37-.6.56-.9h0l.57-.06h0C230.68,154.57,230.7,154.87,230.73,155.17Z" fill="#7f8086"/>
      <path d="M197.23,157.86l-.9.06c0-.4,0-.8-.07-1.19l0,0,.89.59h0c0,.18.07.37.1.55Z" fill="#7f8086"/>
      <path d="M243.39,143.34l.07.9-1.21.06h0l.57-.9h0l.57-.06Z" fill="#7f8086"/>
      <path d="M115.26,62.54l-.91.07-.06-1.2h0l.88.59h0l.09.55Z" fill="#7f8086"/>
      <path d="M116.22,63.67l-.9.07-.06-1.2h0l.89.59h0c0,.18.06.37.1.55Z" fill="#7f8086"/>
      <path d="M187.33,147.46c0-.4,0-.8-.07-1.2l0,0,.89.6h0c0,.18.06.36.1.55h0Z" fill="#7f8086"/>
      <path d="M244.52,142.37l.07.91-1.2.06h0c.18-.3.37-.6.56-.9h0l.57-.07Z" fill="#7f8086"/>
      <path d="M117.19,64.8l-.91.07-.06-1.2h0l.88.59h0l.09.55Z" fill="#7f8086"/>
      <path d="M245.65,141.4l.07.91-1.2.06h0c.19-.3.38-.6.56-.9h0l.57-.07Z" fill="#7f8086"/>
      <path d="M123,33.76l1.2-.06h0l-.57.9h0l-.56.06h0C123,34.36,123,34.06,123,33.76Z" fill="#7f8086"/>
      <path d="M246.78,140.44l.07.91-1.2.06v0l.57-.89h0l.56-.07Z" fill="#7f8086"/>
      <path d="M198.2,159l-.91.06-.06-1.19,0,0,.88.59h0l.09.55Z" fill="#7f8086"/>
      <path d="M218.79,64.74a1.67,1.67,0,0,1-1-1.14l.92-.07Z" fill="#7b7b7b"/>
      <path d="M219.76,65.87a1.67,1.67,0,0,1-1-1.14l.91-.07Z" fill="#7b7b7b"/>
      <path d="M220.72,67a1.67,1.67,0,0,1-1-1.14l.92-.07Z" fill="#7b7b7b"/>
      <path d="M124.11,32.79l1.2-.06h0l-.57.9h0l-.56.07h0C124.16,33.4,124.13,33.09,124.11,32.79Z" fill="#7f8086"/>
      <path d="M124.26,73l-.91.06-.06-1.19,0,0,.88.59h0l.09.55Z" fill="#7f8086"/>
      <path d="M220.78,67.57c0-.2-.05-.39-.07-.58l.91-.07c0,.4,0,.8.07,1.2h0c-.3-.19-.6-.38-.91-.56Z" fill="#7b7b7b"/>
      <path d="M199.16,160.12l-.9.07c0-.4,0-.8-.07-1.2l0,0,.89.6,0,0c0,.19.07.37.1.56Z" fill="#7f8086"/>
      <path d="M125.22,74.14l-.9.07-.06-1.2v0l.89.6,0,0c0,.19.07.37.1.56Z" fill="#7f8086"/>
      <path d="M222.59,68.06l.06,1.19h0l-.9-.56h0l-.06-.57h0Z" fill="#7b7b7b"/>
      <path d="M183.15,142.65l-.06-1.19v0c.45.27.91.53,1,1.13l0,0Z" fill="#7f8086"/>
      <path d="M125.24,31.83l1.2-.06h0c-.19.3-.38.6-.56.9h0l-.57.06h0C125.29,32.43,125.26,32.13,125.24,31.83Z" fill="#7f8086"/>
      <path d="M126.19,75.27l-.91.07-.06-1.2h0l.88.59h0l.09.55Z" fill="#7f8086"/>
      <path d="M223.55,69.19c0,.4,0,.79.07,1.19h0l-.91-.56h0l-.06-.57h0Z" fill="#7b7b7b"/>
      <path d="M182.19,141.52c0-.4-.05-.8-.07-1.2h0l.89.59h0l.09.55v0Z" fill="#7f8086"/>
      <path d="M200.13,161.25l-.91.07-.06-1.2h0l.88.59h0l.09.55Z" fill="#7f8086"/>
      <path d="M252.72,135.3l.07.91-1.2.06v0c.19-.3.37-.6.56-.89h0l.57-.07Z" fill="#7f8086"/>
      <path d="M126.37,30.86l1.2-.06h0l-.56.9h0l-.57.07h0C126.42,31.47,126.4,31.16,126.37,30.86Z" fill="#7f8086"/>
      <path d="M225.92,159.35l-1.2.06h0c.27-.45.54-.9,1.13-1h0C225.88,158.74,225.9,159.05,225.92,159.35Z" fill="#7f8086"/>
      <path d="M181.22,140.39l-.06-1.2h0l.89.59h0c0,.18.07.36.1.55h0Z" fill="#7f8086"/>
      <path d="M253.85,134.33l.07.91-1.2.06h0l.57-.9h0l.57-.07Z" fill="#7f8086"/>
      <path d="M127.5,29.9l1.21-.06h0l-.57.9h0l-.57.06h0C127.55,30.5,127.53,30.2,127.5,29.9Z" fill="#7f8086"/>
      <path d="M224.79,160.31l-1.2.06h0l.57-.9h0l.57-.06h0C224.74,159.71,224.77,160,224.79,160.31Z" fill="#7f8086"/>
      <path d="M180.26,139.26c0-.4,0-.8-.07-1.2l0,0,.89.6h0l.09.55h0Z" fill="#7f8086"/>
      <path d="M255,133.37l.07.9-1.2.07v0l.57-.9h0l.56-.07Z" fill="#7f8086"/>
      <path d="M228.7,75.12l.06,1.2h0c-.3-.19-.6-.38-.91-.56h0l-.06-.57h0Z" fill="#7f8086"/>
      <path d="M146.24,14.73l-.07-.9,1.2-.06h0c-.2.29-.39.59-.59.89v0l-.55.09Z" fill="#7f8086"/>
      <path d="M256.11,132.4l.07.91-1.2.06h0l.57-.9h0l.56-.07Z" fill="#7f8086"/>
      <path d="M229.66,76.25l.06,1.2h0l-.91-.56h0l-.06-.57h0Z" fill="#7f8086"/>
      <path d="M179.29,138.12l-.06-1.19v0l.89.59h0c0,.19.07.37.1.55l0,0Z" fill="#7f8086"/>
      <path d="M201.09,162.38l-.9.07c0-.4,0-.8-.07-1.2h0l.89.59h0c0,.18.07.37.1.55Z" fill="#7f8086"/>
      <path d="M230.63,77.39l.06,1.2h0l-.91-.56h0l-.06-.57h0Z" fill="#7f8086"/>
      <path d="M257.24,131.44l.08.9-1.21.06h0l.57-.9h0l.57-.07Z" fill="#7f8086"/>
      <path d="M231.59,78.52l.06,1.2h0l-.9-.56h0l-.06-.58h0Z" fill="#7f8086"/>
      <path d="M178.33,137c0-.4-.05-.8-.07-1.19l0,0,.89.59h0l.09.55v0Z" fill="#7f8086"/>
      <path d="M232.55,79.65l.06,1.2h0l-.9-.56h0l-.06-.57h0Z" fill="#7f8086"/>
      <path d="M136.15,86.87l-.9.06-.06-1.19v0l.89.59h0c0,.19.07.37.1.55Z" fill="#7f8086"/>
      <path d="M233.52,80.78l.06,1.21h0l-.9-.56h0l-.06-.57h0Z" fill="#7f8086"/>
      <path d="M223.66,161.28l-1.2.06h0l.56-.9h0l.57-.07h0C223.61,160.67,223.63,161,223.66,161.28Z" fill="#7f8086"/>
      <path d="M202,163l.09.55-.92.07-.06-1.2h0l.88.59Z" fill="#7f8086"/>
      <path d="M222.53,162.24l-1.21.06h0c.18-.3.37-.6.56-.9h0l.57-.06h0C222.48,161.64,222.5,161.94,222.53,162.24Z" fill="#7f8086"/>
      <path d="M133.44,24.76l1.2-.06h0c-.27.44-.53.9-1.13,1h0C133.49,25.36,133.46,25.06,133.44,24.76Z" fill="#7f8086"/>
      <path d="M237.69,85.59c0,.4.05.8.07,1.2h0l-.91-.55h0l-.05-.58h0Z" fill="#7f8086"/>
      <path d="M221.39,163.21l-1.2.06h0l.57-.9h0l.57-.07h0C221.35,162.61,221.37,162.91,221.39,163.21Z" fill="#7f8086"/>
      <path d="M134.57,23.79l1.2-.06h0l-.59.89,0,0-.56.1h0C134.62,24.4,134.6,24.09,134.57,23.79Z" fill="#7f8086"/>
      <path d="M238.66,86.72l.06,1.2h0l-.91-.55h0l-.06-.58h0Z" fill="#7f8086"/>
      <path d="M173.19,131.06c0-.4-.05-.8-.07-1.2l0,0,.88.6v0l.09.55v0Z" fill="#7f8086"/>
      <path d="M220.26,164.17l-1.2.06h0l.57-.9h0l.56-.06h0C220.22,163.57,220.24,163.87,220.26,164.17Z" fill="#7f8086"/>
      <path d="M239.62,87.85c0,.4,0,.8.07,1.2h0l-.91-.56h0l-.05-.58h0Z" fill="#7f8086"/>
      <path d="M172.22,129.92l-.06-1.19v0l.89.59h0c0,.19.07.37.1.55l0,0Z" fill="#7f8086"/>
      <path d="M240.59,89l.06,1.19h0l-.91-.56h0l-.06-.57h0Z" fill="#7f8086"/>
      <path d="M171.26,128.79c0-.4,0-.8-.07-1.19l0,0,.88.59h0l.09.55v0Z" fill="#7f8086"/>
      <path d="M241.62,91.32l-.92-.55h0l0-.58h0l.9-.06Z" fill="#7f8086"/>
      <path d="M170.29,127.66l-.06-1.2h0l.89.59h0c0,.18.07.37.1.55l0,0Z" fill="#7f8086"/>
      <path d="M242.59,92.46c-.47-.26-.92-.54-1-1.15l.91-.06Z" fill="#7f8086"/>
      <path d="M169.33,126.53c0-.4-.05-.8-.07-1.2h0l.88.59h0l.09.55h0Z" fill="#7f8086"/>
      <path d="M135.7,22.83l1.21-.06h0l-.59.89v0l-.56.09h0C135.75,23.43,135.73,23.13,135.7,22.83Z" fill="#7f8086"/>
      <path d="M146.12,98.46l-.9.07c0-.4-.05-.8-.07-1.2h0l.89.59h0l.09.55Z" fill="#7f8086"/>
      <path d="M136.84,21.86l1.2-.06h0l-.59.89v0l-.55.1h0C136.88,22.47,136.86,22.16,136.84,21.86Z" fill="#7f8086"/>
      <path d="M168.36,125.4l-.06-1.2v0l.89.6,0,0c0,.19.07.37.1.56h0Z" fill="#7f8086"/>
      <path d="M138,20.9l1.2-.06h0l-.59.89v0l-.55.09h0C138,21.5,138,21.2,138,20.9Z" fill="#7f8086"/>
      <path d="M246.76,97.26c-.48-.25-.91-.53-1-1.14l.91-.06Z" fill="#7f8086"/>
      <path d="M247.73,98.4c-.48-.26-.92-.54-1-1.15l.91-.06Z" fill="#7f8086"/>
      <path d="M139.1,19.93l1.2-.06h0c-.2.3-.39.6-.59.89v0l-.55.1h0C139.15,20.54,139.12,20.23,139.1,19.93Z" fill="#7f8086"/>
      <path d="M151.26,104.4l-.9.07c0-.4-.05-.8-.07-1.2l0,0,.89.6h0c0,.18.06.36.1.55Z" fill="#7f8086"/>
      <path d="M248.69,99.53c-.47-.26-.92-.53-1-1.14l.91-.07Z" fill="#7f8086"/>
      <path d="M152.22,105.53l-.9.07-.06-1.2h0l.88.59h0l.09.55Z" fill="#7f8086"/>
      <path d="M249.66,100.66c-.48-.25-.92-.53-1-1.14l.91-.07Z" fill="#7f8086"/>
      <path d="M164.18,120.59l-.06-1.2h0c.45.27.9.53,1,1.13v0Z" fill="#7f8086"/>
      <path d="M153.19,106.67l-.9.06c0-.4,0-.8-.07-1.2h0l.89.59h0c0,.18.06.37.1.55Z" fill="#7f8086"/>
      <path d="M250.62,101.79c-.47-.25-.92-.53-1-1.14l.91-.07Z" fill="#7f8086"/>
      <path d="M154.15,107.8l-.9.06-.06-1.19,0,0,.88.59h0l.09.55Z" fill="#7f8086"/>
      <path d="M251.59,102.92a1.43,1.43,0,0,1-1-1.14l.91-.06Z" fill="#7f8086"/>
      <path d="M163.22,119.46c0-.4,0-.8-.07-1.2h0l.89.59h0c0,.18.07.37.1.55h0Z" fill="#7f8086"/>
      <path d="M155.12,108.93l-.9.06c0-.39,0-.79-.07-1.19l0,0,.89.59h0c0,.19.06.37.1.55Z" fill="#7f8086"/>
      <path d="M156.08,110.06l-.9.07-.06-1.2,0,0c.44.27.9.54,1,1.14Z" fill="#7f8086"/>
      <path d="M143.91,15.76l1.2-.06h0c-.27.44-.54.9-1.13,1h0C144,16.36,143.93,16.06,143.91,15.76Z" fill="#7f8086"/>
      <path d="M145,14.79l1.2-.06h0l-.59.89v0l-.55.1h0C145.09,15.39,145.06,15.09,145,14.79Z" fill="#7f8086"/>
      <path d="M255.76,107.73c-.48-.25-.93-.52-1-1.14l.91-.07Z" fill="#7f8086"/>
      <path d="M256.73,108.86a1.38,1.38,0,0,1-1-1.14l.91-.07Z" fill="#7f8086"/>
      <path d="M162.25,118.33l-.06-1.2,0,0,.88.6h0l.09.55h0Z" fill="#7f8086"/>
      <path d="M160.26,114.87l-.9.06c0-.4,0-.8-.07-1.19l0,0,.89.59h0c0,.18.07.37.1.55Z" fill="#7f8086"/>
      <path d="M257.69,110c-.49-.24-.94-.51-1-1.14l.91-.06Z" fill="#7f8086"/>
      <path d="M259.62,112.25c-.49-.23-.94-.51-1-1.13l.91-.07Z" fill="#7f8086"/>
      <path d="M161.23,116l-.91.06-.06-1.19,0,0,.88.59h0l.09.55Z" fill="#7f8086"/>
      <path d="M258.66,111.12c-.49-.23-.94-.51-1-1.14l.91-.06Z" fill="#7f8086"/>
      <path d="M162.19,117.13l-.9.07-.06-1.2v0l.89.6,0,0c0,.19.07.37.1.55Z" fill="#7f8086"/>
      <path d="M185.77,32.21c2,1.71,3.49,3.93,5.35,5.81.88.89,1.6,1.94,2.4,2.92-.4.29-.83.54-1.2.86L176.75,55.14c-2.34-1.29-4.75-2.49-7-3.92-1.17-.74-2.63-1.06-3.49-2.27,3.78-3.19,7.61-6.33,11.33-9.59C180.31,37,183.21,34.79,185.77,32.21Z" fill="#747474"/>
      <path d="M185.77,32.21c-2.56,2.58-5.46,4.76-8.19,7.15-3.72,3.26-7.55,6.4-11.33,9.59a55.42,55.42,0,0,1-8-4.56,1.51,1.51,0,0,1,.73-1.22c5.75-5,11.47-9.94,17.27-14.84,1.25-1.06,2.27-2.49,4-2.92l.65.38.23.19a1.28,1.28,0,0,0,.73.94.19.19,0,0,0,.08.17c.08.52.5.73.89,1l.23.19a1.49,1.49,0,0,0,1,1.13h0a1.27,1.27,0,0,0,1,1.14l0,0C184.88,31.28,185.73,31.55,185.77,32.21Z" fill="#7b7b7b"/>
      <path d="M176.75,55.14,192.32,41.8c.37-.32.8-.57,1.2-.86,1,.53,1.37,1.72,2.33,2.31,1.05,1.71,2.65,2.94,3.83,4.54.4.54,1,1,1.1,1.67a5.77,5.77,0,0,0-1.15.62c-4.23,3.64-8.44,7.31-12.66,11A112.91,112.91,0,0,1,176.75,55.14Z" fill="#6e6e6e"/>
      <path d="M180.21,25.41c-1.73.43-2.75,1.86-4,2.92-5.8,4.9-11.52,9.89-17.27,14.84a1.51,1.51,0,0,0-.73,1.22,2.71,2.71,0,0,1-.7-.21c-1.95-1.29-4.07-2.3-6-3.53-1.18-.74-2.8-1-3.46-2.49q12-10.3,24-20.64c.69-.6,1.11-.55,1.54.1.94,1.41,2.43,2.25,3.49,3.52a1.27,1.27,0,0,0,.95,1.17h0c.06.63.51.93,1,1.21l.22.18a1.25,1.25,0,0,0,.74.95l.23.19Z" fill="gray"/>
      <path d="M177,21.14c-1.06-1.27-2.55-2.11-3.49-3.52-.43-.65-.85-.7-1.54-.1Q160,27.89,148,38.16l-.53.31c-.84-.92-2.3-1-2.95-2.15a104.46,104.46,0,0,0,8.75-7.22c6.36-5.41,12.65-10.9,19-16.35a2.83,2.83,0,0,1,.66-.3.91.91,0,0,0,.92.54c.24,1.47,1.6,2.16,2.34,3.28a10,10,0,0,0,1.7,2c1.28,1.11.95,2-.25,2.82Z" fill="#2f2f2f"/>
      <path d="M177,21.14l.62,0a1.64,1.64,0,0,1,.33,1.21A1.27,1.27,0,0,1,177,21.14Z" fill="#1e1e1e"/>
      <path d="M178.93,23.53c-.49-.28-.94-.58-1-1.21C178.87,22.22,179,22.84,178.93,23.53Z" fill="#1e1e1e"/>
      <path d="M185,30.51a1.27,1.27,0,0,1-1-1.14C184.9,29.31,185.07,29.81,185,30.51Z" fill="#1e1e1e"/>
      <path d="M184.07,29.37a1.49,1.49,0,0,1-1-1.13C183.88,28.15,184.1,28.64,184.07,29.37Z" fill="#1e1e1e"/>
      <path d="M182.79,28.05c-.39-.23-.81-.44-.89-1C182.67,27,182.85,27.4,182.79,28.05Z" fill="#1e1e1e"/>
      <path d="M181.82,26.92a1.28,1.28,0,0,1-.73-.94C181.84,25.9,181.84,26.4,181.82,26.92Z" fill="#1e1e1e"/>
      <path d="M180.21,25.41l-.09-.56c.75-.09.75.41.74.94Z" fill="#1e1e1e"/>
      <path d="M179.89,24.66a1.25,1.25,0,0,1-.74-.95C179.91,23.63,179.91,24.14,179.89,24.66Z" fill="#1e1e1e"/>
      <path d="M144.53,36.32c.65,1.17,2.11,1.23,2.94,2.15-2.94,2.58-5.88,5.19-8.85,7.75q-8.82,7.59-17.68,15.13c-.77.65-1,1.12-.25,2,2.68,3.08,5.3,6.21,8,9.3q10,11.56,19.94,23.11c5.67,6.6,11.3,13.23,17,19.83q10,11.63,20,23.23,7.06,8.22,14.11,16.46c.72.84,1.26,1.13,2.23.28q10.67-9.3,21.39-18.51,14.4-12.4,28.84-24.75c1.72-1.49,1.7-1.45.29-3.1-5.9-6.84-11.76-13.73-17.69-20.54-1.47-1.69-2.72-3.6-4.52-5-1.49-1.82-2.91-3.71-4.48-5.46-1.94-2.14-3.58-4.55-5.79-6.44-.15-.79-1.06-1.09-1.23-1.86a2.19,2.19,0,0,0,.23-.68c0-1.52.31-1.82,1.79-1.61h0c0,.65.18,1.15,1,1.13h0c0,.65.18,1.15,1,1.13h0c0,.65.18,1.15,1,1.13h0c0,.65.18,1.15,1,1.14h0c0,.64.19,1.14,1,1.13h0c0,.64.18,1.15,1,1.13h0a1.26,1.26,0,0,0,1.29,1.41h0c0,.65.18,1.15,1,1.13h0c0,.65.18,1.15,1,1.13h0c0,.65.18,1.15,1,1.14h0c0,.64.18,1.14,1,1.13h0c0,.65.19,1.14,1,1.13h0c0,.65.18,1.15,1,1.14h0c0,.64.19,1.14,1,1.13h0a1.4,1.4,0,0,0,1,1.42,1.26,1.26,0,0,0,1.27,1.12h0c0,.64.19,1.14,1,1.13h0c0,.64.18,1.15,1,1.13h0c0,.65.19,1.15,1,1.13h0c0,.65.18,1.15,1,1.14h0c.23,2.85,2.37,4.52,4,6.46,5,5.88,10.11,11.67,15.06,17.59A10.61,10.61,0,0,1,262.3,121c0,.69-.24,1.51.49,2l0,.57c-.66.15-.79.44-.25.91l-.21.62a.34.34,0,0,0-.07.19l-.32.4c-1.14.32-1.43,1.22-1.51,2.26h0c-.79,0-1.12.48-1.18,1.2h0c-.64,0-1.15.19-1.13,1h0a1.27,1.27,0,0,0-1.41,1.29h0c-.64,0-1.15.19-1.13,1h0c-.65,0-1.15.19-1.13,1h0c-.65,0-1.15.19-1.14,1h0c-.65,0-1.15.19-1.14,1h0c-.64,0-1.14.18-1.13,1h0c-.64,0-1.14.19-1.13,1h0c-.64,0-1.15.18-1.13,1h0c-.65,0-1.15.19-1.13,1h0a1.26,1.26,0,0,0-1.41,1.28h0c-.65,0-1.15.18-1.14,1h0c-.64,0-1.14.19-1.13,1h0c-.64,0-1.14.18-1.13,1h0c-.64,0-1.15.19-1.13,1h0c-.65,0-1.15.18-1.13,1h0c-.65,0-1.15.19-1.14,1h0c-.65,0-1.15.18-1.14,1h0c-.64,0-1.14.19-1.13,1h0a3.28,3.28,0,0,0-2.54,2.24h0c-.65,0-1.15.19-1.13,1h0c-.65,0-1.15.18-1.13,1h0c-.65,0-1.15.19-1.14,1h0c-.64,0-1.14.18-1.13,1h0c-.64,0-1.14.19-1.13,1h0c-.64,0-1.15.18-1.13,1h0c-.65,0-1.15.19-1.13,1h0a3.31,3.31,0,0,0-2.55,2.24h0c-.65,0-1.15.19-1.14,1h0c-.64,0-1.14.18-1.13,1h0c-.64,0-1.14.19-1.13,1h0c-.65,0-1.15.18-1.13,1h0c-.65,0-1.15.19-1.13,1h0c-.64,0-1.13.18-1.16.94h0c-.46.09-1.11-.11-1.1.72l-.6.47-.83.3c-.23-.4-.52-.39-.85-.13v-.1l.09,0c-.26-.08-.39,0-.39.28l-.08.08-.12,0a10,10,0,0,0-3.81-.24c0-.26-.1-.49-.41-.54-3.18-.5-5-2.83-7-5.06l-23.79-27.67c-4.78-5.56-9.52-11.16-14.31-16.72q-10.78-12.54-21.61-25.06c-5.14-6-10.24-12-15.37-18-4.78-5.57-9.58-11.11-14.36-16.69a11.1,11.1,0,0,1-2.26-6.59c.3-1.53.61-3.06.91-4.59.11-.19.22-.37.32-.56.9,0,1.12-.64,1.39-1.28.46-.34,1.16-.48,1.1-1.28h0c.64,0,1.15-.18,1.13-1h0c.65,0,1.15-.19,1.13-1h0c.65,0,1.15-.18,1.14-1h0c.65,0,1.15-.19,1.14-1h0c.64,0,1.14-.18,1.13-1h0c.64,0,1.14-.19,1.13-1h0c.64,0,1.15-.18,1.13-1h0a1.26,1.26,0,0,0,1.41-1.28h0c.65,0,1.15-.19,1.13-1h0c.65,0,1.15-.18,1.14-1h0c.64,0,1.14-.19,1.13-1h0c.64,0,1.14-.18,1.13-1h0c.64,0,1.15-.19,1.13-1h0c.65,0,1.15-.18,1.13-1h0l.88,0,6.57,4c.08,1.34-1.23,1.65-1.88,2.44-.32.39-.83.63-.36,1.17s.91.08,1.26-.19c1-.75,1.88-1.56,2.81-2.35C141.36,34.57,142.72,35.9,144.53,36.32Zm86.21,109.56a1,1,0,0,0-.91-.5c-.65-.85-1.31-1.69-2-2.53a7.6,7.6,0,0,1,1.13-6c.71-.95,2-1,2.84-1.64,2-.5,3.68.79,5.57.94a5.8,5.8,0,0,0-5.58-1.56c-1.38.42-2.78.81-3.46,2.29-1.63,1.24-2,3.65-1,6.34a5,5,0,0,0,2.17,2.57,1.81,1.81,0,0,0,1.27.8,3.68,3.68,0,0,0,3.5,0A13.18,13.18,0,0,1,230.74,145.88Zm8.45-7.34-1.26-2.1c-.39,1.24.31,1.79.72,2.44.19,2.08.25,4.14-1.41,5.77l-2.2,1.74c1.56.2,2.09-.79,2.79-1.5C239.38,144.14,240.09,141,239.19,138.54ZM131.66,40.46c-.38-.3-.34-1.12-1.19-1.05a1.14,1.14,0,0,0-1.06,1.33c0,.67.3,1.24,1.16,1.19S131.47,41.18,131.66,40.46Zm103.14,106,.06-.09h-.11Z" fill="#010101"/>
      <path d="M187,61.05c4.22-3.66,8.43-7.33,12.66-11a5.77,5.77,0,0,1,1.15-.62,10.46,10.46,0,0,1,2.9,3.07c1.89,2.87,4.66,5,6.59,7.77.92,1.34,2.22,2.29,3.09,3.63,0,.43-.32.57-.57.79l-7.59,6.53a2.88,2.88,0,0,1-2.21-.63C197.72,67.32,192.17,64.48,187,61.05Z" fill="#676767"/>
      <path d="M205.2,71.25l7.59-6.53c.25-.22.61-.36.57-.79l3.53,3.86.33.44.63.69.34.44.57.5c.17.77,1.08,1.07,1.22,1.86a58.21,58.21,0,0,0-5.78,5.21c-2.79-1.59-5.58-3.16-8.36-4.75A1.15,1.15,0,0,1,205.2,71.25Z" fill="#5d5d5d"/>
      <path d="M217.22,68.23l-.33-.44Z" fill="#010101"/>
      <path d="M218.19,69.36l-.34-.44Z" fill="#010101"/>
      <path d="M136.17,86.85c0-.18-.06-.36-.1-.55a3.17,3.17,0,0,1,2.27,2.56L137.13,88C137.07,87.39,136.62,87.12,136.17,86.85Z" fill="#1e1e1e"/>
      <path d="M139.28,90c.82,0,1,.47,1,1.14l-.89-.59C139.35,90.34,139.32,90.16,139.28,90Z" fill="#1e1e1e"/>
      <path d="M138.32,88.84c.82,0,1,.48,1,1.15C138.85,89.72,138.4,89.43,138.32,88.84Z" fill="#1e1e1e"/>
      <path d="M144.11,95.64c.82,0,1,.47,1,1.14l-.89-.59Z" fill="#1e1e1e"/>
      <path d="M146.06,97.91l-.89-.59c0-.19-.06-.37-.1-.55C145.89,96.73,146.06,97.24,146.06,97.91Z" fill="#1e1e1e"/>
      <path d="M143.14,94.5c.82,0,1,.48,1,1.15l-.89-.6C143.21,94.87,143.18,94.69,143.14,94.5Z" fill="#1e1e1e"/>
      <path d="M142.18,93.37c.82,0,1,.48,1,1.14l-.89-.59Z" fill="#1e1e1e"/>
      <path d="M141.21,92.24c.82,0,1,.47,1,1.14l-.89-.59C141.28,92.61,141.25,92.42,141.21,92.24Z" fill="#1e1e1e"/>
      <path d="M140.25,91.11c.82,0,1,.47,1,1.14l-.89-.59Z" fill="#1e1e1e"/>
      <path d="M139.69,33.87c-.93.79-1.85,1.6-2.81,2.35-.35.27-.81.71-1.26.19s0-.78.36-1.17c.65-.79,2-1.1,1.88-2.44,1.55-.32,2.32-1.7,3.48-2.56.79-.58,1.51-1.25,2.25-1.9.36-.31.84-.63,1.16-.24s-.21.8-.5,1.06c-1.31,1.19-2.64,2.35-4,3.46A1.19,1.19,0,0,0,139.69,33.87Z" fill="#1e1e1e"/>
      <path d="M134.65,24.71l.56-.1a3.17,3.17,0,0,1-2.56,2.27l.87-1.21C134.12,25.61,134.38,25.15,134.65,24.71Z" fill="#191919"/>
      <path d="M145.12,15.71l.55-.1a3.15,3.15,0,0,1-2.55,2.27l.87-1.21C144.58,16.61,144.85,16.15,145.12,15.71Z" fill="#191919"/>
      <path d="M154.71,7.91l.88-1.19L157,6.26A2.75,2.75,0,0,1,154.71,7.91Z" fill="#191919"/>
      <path d="M145.66,15.63l.59-.89.55-.09C146.85,15.47,146.33,15.64,145.66,15.63Z" fill="#191919"/>
      <path d="M146.79,14.67c.2-.3.39-.6.59-.89l.55-.1C148,14.5,147.46,14.67,146.79,14.67Z" fill="#191919"/>
      <path d="M142,18.84l.6-.89.55-.09C143.17,18.68,142.65,18.85,142,18.84Z" fill="#191919"/>
      <path d="M141.44,18.92l.56-.1c0,.83-.48,1-1.15,1Z" fill="#191919"/>
      <path d="M147.92,13.7c.2-.3.4-.59.59-.89l.56-.09C149.11,13.54,148.59,13.71,147.92,13.7Z" fill="#191919"/>
      <path d="M139.72,20.77c.2-.29.39-.59.59-.89l.56-.09C140.91,20.61,140.39,20.78,139.72,20.77Z" fill="#191919"/>
      <path d="M139.18,20.85l.55-.1c.05.83-.47,1-1.14,1C138.79,21.44,139,21.14,139.18,20.85Z" fill="#191919"/>
      <path d="M153.58,8.88c.27-.47.55-.91,1.15-1C154.77,8.71,154.25,8.88,153.58,8.88Z" fill="#191919"/>
      <path d="M138.05,21.81l.55-.09c0,.82-.47,1-1.14,1Z" fill="#191919"/>
      <path d="M152.45,9.84,153,9l.55-.09C153.64,9.68,153.12,9.85,152.45,9.84Z" fill="#191919"/>
      <path d="M136.92,22.78l.55-.1c0,.83-.47,1-1.14,1C136.52,23.37,136.72,23.07,136.92,22.78Z" fill="#191919"/>
      <path d="M135.78,23.74l.56-.09c0,.82-.48,1-1.15,1C135.39,24.34,135.59,24,135.78,23.74Z" fill="#191919"/>
      <path d="M151.91,9.92l.55-.1c0,.82-.47,1-1.14,1C151.51,10.51,151.71,10.21,151.91,9.92Z" fill="#191919"/>
      <path d="M131.52,27.84c.27-.46.54-.91,1.14-1C132.71,27.68,132.19,27.85,131.52,27.84Z" fill="#191919"/>
      <path d="M150.19,11.77c.19-.3.39-.59.59-.89l.55-.09C151.37,11.61,150.86,11.78,150.19,11.77Z" fill="#191919"/>
      <path d="M131.29,28.78l-.88,0,.57-.9.55-.09Z" fill="#191919"/>
      <path d="M149.64,11.85l.56-.1c0,.82-.48,1-1.15,1Z" fill="#191919"/>
      <path d="M164.14,119.38c0-.18-.07-.37-.1-.55a3.13,3.13,0,0,1,2.26,2.55l-1.2-.87C165,119.91,164.59,119.65,164.14,119.38Z" fill="#1e1e1e"/>
      <path d="M156.1,110.05c-.06-.6-.52-.87-1-1.14,0-.18-.07-.36-.1-.55a3.14,3.14,0,0,1,2.26,2.56Z" fill="#1e1e1e"/>
      <path d="M183.1,141.44l-.09-.55a3.13,3.13,0,0,1,2.26,2.55l-1.2-.87C184,142,183.55,141.71,183.1,141.44Z" fill="#1e1e1e"/>
      <path d="M128.13,77.52c-.06-.6-.51-.86-1-1.13,0-.18-.07-.37-.1-.55a3.13,3.13,0,0,1,2.26,2.55Z" fill="#1e1e1e"/>
      <path d="M192.11,151.9c0-.18-.07-.36-.1-.55a3.14,3.14,0,0,1,2.26,2.56l-1.2-.87C193,152.44,192.55,152.17,192.11,151.9Z" fill="#1e1e1e"/>
      <path d="M118.17,65.92c0-.18-.07-.36-.1-.55a1.23,1.23,0,0,1,1.3,1.42Z" fill="#1e1e1e"/>
      <path d="M146.13,98.45,146,97.9c.91,0,1.29.55,1.3,1.42Z" fill="#1e1e1e"/>
      <path d="M174.1,131l-.09-.55c.91,0,1.29.56,1.29,1.43Z" fill="#1e1e1e"/>
      <path d="M162.21,117.11c0-.18-.07-.36-.1-.55.82,0,1,.48,1,1.15Z" fill="#1e1e1e"/>
      <path d="M162.13,116.58l-.89-.6-.09-.55C162,115.39,162.14,115.91,162.13,116.58Z" fill="#1e1e1e"/>
      <path d="M161.16,115.44l-.88-.59c0-.18-.07-.37-.1-.55C161,114.26,161.17,114.78,161.16,115.44Z" fill="#1e1e1e"/>
      <path d="M163.17,118.25l-.09-.55c.81,0,1,.47,1,1.14Z" fill="#1e1e1e"/>
      <path d="M160.2,114.31l-.89-.59-.09-.55C160,113.13,160.21,113.64,160.2,114.31Z" fill="#1e1e1e"/>
      <path d="M158.35,112.59c0-.19-.07-.37-.1-.55.82,0,1,.47,1,1.14Z" fill="#1e1e1e"/>
      <path d="M158.27,112.05l-.89-.59-.09-.55C158.1,110.87,158.28,111.38,158.27,112.05Z" fill="#1e1e1e"/>
      <path d="M155.06,108.37l-.89-.59-.09-.55C154.89,107.19,155.06,107.71,155.06,108.37Z" fill="#1e1e1e"/>
      <path d="M154.09,107.24l-.88-.59c0-.18-.07-.37-.1-.55C153.93,106.06,154.1,106.57,154.09,107.24Z" fill="#1e1e1e"/>
      <path d="M153.13,106.11l-.89-.59-.09-.55C153,104.93,153.13,105.44,153.13,106.11Z" fill="#1e1e1e"/>
      <path d="M152.16,105l-.88-.59c0-.19-.07-.37-.1-.55C152,103.8,152.17,104.31,152.16,105Z" fill="#1e1e1e"/>
      <path d="M167.27,122.51c-.45-.27-.9-.55-1-1.14C167.1,121.33,167.28,121.84,167.27,122.51Z" fill="#1e1e1e"/>
      <path d="M168.23,123.64l-.88-.59c0-.18-.06-.37-.1-.55C168.07,122.46,168.24,123,168.23,123.64Z" fill="#1e1e1e"/>
      <path d="M151.2,103.85l-.89-.6-.09-.55C151,102.67,151.2,103.18,151.2,103.85Z" fill="#1e1e1e"/>
      <path d="M149.35,102.12c0-.18-.07-.36-.1-.55.82,0,1,.48,1,1.15Z" fill="#1e1e1e"/>
      <path d="M169.2,124.78l-.89-.6-.09-.55C169,123.59,169.21,124.11,169.2,124.78Z" fill="#1e1e1e"/>
      <path d="M149.27,101.58l-.89-.59-.09-.55C149.1,100.4,149.27,100.92,149.27,101.58Z" fill="#1e1e1e"/>
      <path d="M169.28,125.32c0-.19-.06-.37-.1-.56.82,0,1,.48,1,1.15Z" fill="#1e1e1e"/>
      <path d="M148.3,100.45c-.45-.27-.9-.55-1-1.14C148.14,99.27,148.31,99.78,148.3,100.45Z" fill="#1e1e1e"/>
      <path d="M170.24,126.45l-.09-.55c.82,0,1,.47,1,1.14Z" fill="#1e1e1e"/>
      <path d="M171.21,127.58c0-.18-.06-.37-.1-.55.82,0,1,.47,1,1.14Z" fill="#1e1e1e"/>
      <path d="M172.17,128.71l-.09-.55c.82,0,1,.48,1,1.14Z" fill="#1e1e1e"/>
      <path d="M173.14,129.84c0-.18-.06-.36-.1-.55.82,0,1,.48,1,1.15Z" fill="#1e1e1e"/>
      <path d="M176.27,133c-.45-.27-.9-.56-1-1.15C176.11,131.8,176.28,132.31,176.27,133Z" fill="#1e1e1e"/>
      <path d="M177.24,134.11l-.89-.59c0-.19-.06-.37-.1-.55C177.07,132.93,177.24,133.44,177.24,134.11Z" fill="#1e1e1e"/>
      <path d="M177.31,134.65l-.09-.55c.82,0,1,.47,1,1.14Z" fill="#1e1e1e"/>
      <path d="M179.17,136.37l-.89-.59c0-.18-.06-.37-.1-.55C179,135.19,179.17,135.7,179.17,136.37Z" fill="#1e1e1e"/>
      <path d="M179.24,136.91l-.09-.55c.82,0,1,.48,1,1.14Z" fill="#1e1e1e"/>
      <path d="M136.09,86.31l-.89-.59-.09-.55C135.93,85.13,136.1,85.65,136.09,86.31Z" fill="#1e1e1e"/>
      <path d="M134.24,84.59c0-.18-.06-.37-.1-.55.82,0,1,.47,1,1.14Z" fill="#1e1e1e"/>
      <path d="M133.27,83.46l-.09-.55c.82,0,1,.47,1,1.14Z" fill="#1e1e1e"/>
      <path d="M180.21,138c0-.18-.06-.36-.1-.55.82,0,1,.48,1,1.15Z" fill="#1e1e1e"/>
      <path d="M132.31,82.33c0-.19-.06-.37-.1-.56.82,0,1,.48,1,1.15Z" fill="#1e1e1e"/>
      <path d="M131.34,81.19l-.09-.55c.82,0,1,.48,1,1.15Z" fill="#1e1e1e"/>
      <path d="M181.17,139.18l-.09-.55c.82,0,1,.47,1,1.14Z" fill="#1e1e1e"/>
      <path d="M131.26,80.65l-.88-.6v0l-.09-.57h0C131.1,79.49,131.28,80,131.26,80.65Z" fill="#1e1e1e"/>
      <path d="M182.14,140.31c0-.19-.06-.37-.1-.55.82,0,1,.47,1,1.14Z" fill="#1e1e1e"/>
      <path d="M129.43,78.93c0-.18-.07-.37-.11-.55.8,0,1,.46,1,1.12h0c-.3-.19-.6-.38-.89-.58Z" fill="#1e1e1e"/>
      <path d="M126.2,75.26l-.09-.55c.81,0,1,.47,1,1.14Z" fill="#1e1e1e"/>
      <path d="M126.12,74.72l-.88-.59c0-.19-.07-.37-.1-.56C126,73.54,126.13,74.05,126.12,74.72Z" fill="#1e1e1e"/>
      <path d="M125.16,73.59l-.89-.6-.09-.55C125,72.4,125.17,72.92,125.16,73.59Z" fill="#1e1e1e"/>
      <path d="M124.19,72.45l-.88-.59c0-.18-.07-.37-.1-.55C124,71.27,124.2,71.79,124.19,72.45Z" fill="#1e1e1e"/>
      <path d="M186.24,144.57l-.89-.59-.09-.55C186.07,143.39,186.24,143.91,186.24,144.57Z" fill="#1e1e1e"/>
      <path d="M123.23,71.32l-.89-.59-.09-.55C123.06,70.14,123.24,70.65,123.23,71.32Z" fill="#1e1e1e"/>
      <path d="M186.32,145.11c0-.18-.07-.36-.1-.55.82,0,1,.48,1,1.15Z" fill="#1e1e1e"/>
      <path d="M122.26,70.19a1.65,1.65,0,0,1-1-1.14C122.1,69,122.27,69.52,122.26,70.19Z" fill="#1e1e1e"/>
      <path d="M121.3,69.06c-.46-.27-.9-.56-1-1.14C121.13,67.88,121.31,68.39,121.3,69.06Z" fill="#1e1e1e"/>
      <path d="M188.17,146.84l-.89-.6-.09-.55C188,145.66,188.17,146.17,188.17,146.84Z" fill="#1e1e1e"/>
      <path d="M120.33,67.93c-.45-.28-.89-.56-1-1.15C120.17,66.74,120.34,67.26,120.33,67.93Z" fill="#1e1e1e"/>
      <path d="M188.25,147.38c0-.19-.07-.37-.1-.55.82,0,1,.47,1,1.14Z" fill="#1e1e1e"/>
      <path d="M117.2,64.79l-.09-.55c.81,0,1,.48,1,1.14Z" fill="#1e1e1e"/>
      <path d="M117.12,64.25l-.88-.59c0-.18-.07-.37-.1-.55C117,63.07,117.13,63.58,117.12,64.25Z" fill="#1e1e1e"/>
      <path d="M116.16,63.12l-.89-.59-.09-.55C116,61.94,116.16,62.45,116.16,63.12Z" fill="#1e1e1e"/>
      <path d="M115.19,62l-.88-.59c0-.19-.07-.37-.1-.55C115,60.81,115.2,61.32,115.19,62Z" fill="#1e1e1e"/>
      <path d="M189.21,148.51l-.09-.55c.81,0,1,.47,1,1.14Z" fill="#1e1e1e"/>
      <path d="M112.35,59.15l-.06-.58c.81,0,1,.49,1,1.15Z" fill="#1e1e1e"/>
      <path d="M190.18,149.64c0-.18-.07-.37-.1-.55.82,0,1,.47,1,1.14Z" fill="#1e1e1e"/>
      <path d="M191.14,150.77l-.09-.55c.81,0,1,.48,1,1.14Z" fill="#1e1e1e"/>
      <path d="M202,163l-.88-.59c0-.18-.07-.37-.1-.55C201.83,161.78,202,162.29,202,163Z" fill="#1e1e1e"/>
      <path d="M201,161.83l-.89-.59-.09-.55C200.86,160.65,201,161.16,201,161.83Z" fill="#1e1e1e"/>
      <path d="M195.24,155a1.62,1.62,0,0,1-1-1.15C195.07,153.86,195.25,154.37,195.24,155Z" fill="#1e1e1e"/>
      <path d="M200.06,160.7l-.88-.59c0-.19-.07-.37-.1-.56C199.9,159.51,200.07,160,200.06,160.7Z" fill="#1e1e1e"/>
      <path d="M196.2,156.17l-.88-.59c0-.19-.07-.37-.1-.55C196,155,196.21,155.5,196.2,156.17Z" fill="#1e1e1e"/>
      <path d="M197.17,157.3l-.89-.59-.09-.55C197,156.12,197.18,156.63,197.17,157.3Z" fill="#1e1e1e"/>
      <path d="M198.13,158.43l-.88-.59c0-.18-.07-.37-.1-.55C198,157.25,198.14,157.77,198.13,158.43Z" fill="#1e1e1e"/>
      <path d="M199.1,159.57l-.89-.6-.09-.55C198.93,158.38,199.11,158.9,199.1,159.57Z" fill="#1e1e1e"/>
      <path d="M112.3,58.58l-.62-.57-.08-.38a.19.19,0,0,1,0-.18C112.46,57.43,112.22,58.11,112.3,58.58Z" fill="#1e1e1e"/>
      <path d="M111.6,57.63l.08.38-.25,0Z" fill="#2f2f2f"/>
      <path d="M262.51,124.57c-.54-.47-.41-.76.25-.91l.26.26c-.27.13-.25.38-.25.62l-.13,0Z" fill="#242424"/>
      <path d="M129.4,78.93c.29.2.59.39.89.58l.09.57C129.56,80.11,129.39,79.6,129.4,78.93Z" fill="#7f8086"/>
      <path d="M213.94,166.6c.33-.26.62-.27.85.13C214.47,167,214.17,167,213.94,166.6Z" fill="#191919"/>
      <path d="M213.65,166.82c0-.27.13-.36.39-.28Z" fill="#191919"/>
      <path d="M216.22,166c0-.83.64-.63,1.1-.72l-.3.55Z" fill="#191919"/>
      <path d="M262.23,125.38a.34.34,0,0,1,.07-.19l.21.24A.39.39,0,0,1,262.23,125.38Z" fill="#242424"/>
      <path d="M224.14,159.46a3.31,3.31,0,0,1,2.55-2.24l-.85,1.21c-.59.07-.86.52-1.13,1Z" fill="#191919"/>
      <path d="M226.69,157.22c0-.78.48-1,1.13-1l-.57.9Z" fill="#191919"/>
      <path d="M229,155.29c0-.78.49-1,1.13-1-.19.3-.38.6-.56.9Z" fill="#191919"/>
      <path d="M227.82,156.25c0-.78.49-.95,1.13-1l-.57.9Z" fill="#191919"/>
      <path d="M246.21,140.5a1.26,1.26,0,0,1,1.41-1.28c-.29.4-.57.81-.85,1.21Z" fill="#191919"/>
      <path d="M248.75,138.25c0-.78.49-1,1.13-1l-.57.89Z" fill="#191919"/>
      <path d="M247.62,139.22c0-.78.48-1,1.13-1C248.51,138.73,248.24,139.18,247.62,139.22Z" fill="#191919"/>
      <path d="M251,136.32c0-.78.49-1,1.13-1-.19.29-.37.59-.56.89Z" fill="#191919"/>
      <path d="M249.88,137.29c0-.78.49-1,1.13-1-.19.3-.38.6-.56.9Z" fill="#191919"/>
      <path d="M123.62,34.61a1.26,1.26,0,0,1-1.41,1.28l.85-1.22Z" fill="#191919"/>
      <path d="M121.08,36.85c0,.78-.49,1-1.13,1,.19-.3.38-.6.56-.9Z" fill="#191919"/>
      <path d="M122.21,35.89c0,.78-.49,1-1.13,1C121.32,36.37,121.59,35.92,122.21,35.89Z" fill="#191919"/>
      <path d="M118.82,38.78c0,.78-.49,1-1.14,1l.57-.9Z" fill="#191919"/>
      <path d="M120,37.82c0,.78-.49,1-1.13,1,.18-.3.37-.6.56-.9Z" fill="#191919"/>
      <path d="M227.85,75.77a1.26,1.26,0,0,1-1.29-1.41l1.23.84Z" fill="#191919"/>
      <path d="M226.56,74.36c-.78,0-1-.49-1-1.13a1,1,0,0,1,.29,0C226.08,73.63,226.63,73.81,226.56,74.36Z" fill="#191919"/>
      <path d="M224.63,72.1c-.78,0-1-.49-1-1.14l.9.56Z" fill="#191919"/>
      <path d="M223.67,71c-.79,0-1-.48-1-1.13l.91.56Z" fill="#191919"/>
      <path d="M225.6,73.23c-.78,0-1-.49-1-1.13.25.14.49.29.73.44Z" fill="#191919"/>
      <path d="M234.61,150.46a3.28,3.28,0,0,1,2.54-2.24l-.84,1.21c-.6.07-.86.52-1.13,1Z" fill="#191919"/>
      <path d="M237.15,148.22c0-.78.49-1,1.13-1l-.56.9Z" fill="#191919"/>
      <path d="M239.41,146.29c0-.78.49-1,1.14-1l-.57.9Z" fill="#191919"/>
      <path d="M238.28,147.25c0-.78.49-.95,1.14-1l-.57.9Z" fill="#191919"/>
      <path d="M130.41,28.82c0,.78-.48.95-1.13,1l.57-.9Z" fill="#191919"/>
      <path d="M129.28,29.78c0,.78-.49,1-1.13,1l.57-.9Z" fill="#191919"/>
      <path d="M259.21,129.24c.06-.72.39-1.18,1.18-1.2l-.62,1.14Z" fill="#191919"/>
      <path d="M113.19,43.92c-.27.64-.49,1.32-1.39,1.28.08-.21.15-.43.22-.64l.31-.56.27-.32.55-.09Z" fill="#1e1e1e"/>
      <path d="M217.33,165.23c0-.76.52-.94,1.16-.94l-.58.89Z" fill="#191919"/>
      <path d="M218.49,164.29c0-.78.48-1,1.13-1l-.57.9Z" fill="#191919"/>
      <path d="M113.19,43.92l0-.33.57-.88.57-.07C114.35,43.44,113.65,43.58,113.19,43.92Z" fill="#191919"/>
      <path d="M236.84,86.24a1.26,1.26,0,0,1-1.27-1.12l.34,0,.88.57C236.81,85.85,236.83,86,236.84,86.24Z" fill="#242424"/>
      <path d="M235.91,85.09l-.34,0a1.4,1.4,0,0,1-1-1.42C235.3,83.91,235.53,84.58,235.91,85.09Z" fill="#191919"/>
      <path d="M234.59,83.7c-.77,0-1-.49-1-1.13l.9.56Z" fill="#191919"/>
      <path d="M233.63,82.57c-.78,0-.95-.49-1-1.14l.9.56Z" fill="#191919"/>
      <path d="M256.67,131.5a1.27,1.27,0,0,1,1.41-1.29l-.84,1.22Z" fill="#191919"/>
      <path d="M258.08,130.22c0-.78.49-1,1.13-1C259,129.74,258.7,130.18,258.08,130.22Z" fill="#191919"/>
      <path d="M233.48,151.43c0-.78.48-1,1.13-1l-.57.9Z" fill="#191919"/>
      <path d="M232.35,152.39c0-.78.48-.95,1.13-1l-.57.9Z" fill="#191919"/>
      <path d="M116.55,40.71c0,.78-.48,1-1.13,1l.57-.9Z" fill="#191919"/>
      <path d="M117.69,39.75c0,.78-.49,1-1.14,1l.57-.9Z" fill="#191919"/>
      <path d="M115.42,41.68c0,.78-.49,1-1.13,1l.57-.89Z" fill="#191919"/>
      <path d="M231.21,153.36c0-.78.49-1,1.14-1l-.57.9Z" fill="#191919"/>
      <path d="M240.55,145.32c0-.78.48-.95,1.13-1l-.57.9Z" fill="#191919"/>
      <path d="M230.08,154.32c0-.78.49-.95,1.13-1-.18.3-.37.6-.56.9Z" fill="#191919"/>
      <path d="M241.68,144.36c0-.78.49-1,1.13-1l-.57.9Z" fill="#191919"/>
      <path d="M242.81,143.39c0-.78.49-1,1.13-1-.19.3-.38.6-.56.9Z" fill="#191919"/>
      <path d="M243.94,142.43c0-.78.49-1,1.13-1-.18.3-.37.6-.56.9Z" fill="#191919"/>
      <path d="M245.07,141.46c0-.78.49-1,1.14-1l-.57.89Z" fill="#191919"/>
      <path d="M124.75,33.64c0,.78-.48,1-1.13,1l.57-.9Z" fill="#191919"/>
      <path d="M125.89,32.68c0,.78-.49,1-1.14,1l.57-.9Z" fill="#191919"/>
      <path d="M221.74,68.7c-.79,0-1-.48-1-1.13.31.18.61.37.91.56Z" fill="#191919"/>
      <path d="M222.7,69.83c-.78,0-1-.48-1-1.13l.9.56Z" fill="#191919"/>
      <path d="M127,31.71c0,.78-.49,1-1.13,1,.18-.3.37-.6.56-.9Z" fill="#191919"/>
      <path d="M252.14,135.36c0-.78.49-1,1.14-1l-.57.9Z" fill="#191919"/>
      <path d="M128.15,30.75c0,.78-.49.95-1.13,1l.56-.9Z" fill="#191919"/>
      <path d="M253.27,134.39c0-.78.49-1,1.14-1l-.57.9Z" fill="#191919"/>
      <path d="M223,160.43c0-.78.49-1,1.14-1l-.57.9Z" fill="#191919"/>
      <path d="M254.41,133.43c0-.78.48-1,1.13-1l-.57.9Z" fill="#191919"/>
      <path d="M228.81,76.9c-.79,0-1-.48-1-1.13.31.18.61.37.91.56Z" fill="#191919"/>
      <path d="M255.54,132.46c0-.78.49-1,1.13-1l-.57.9Z" fill="#191919"/>
      <path d="M229.78,78c-.79,0-1-.48-1-1.13l.91.56Z" fill="#191919"/>
      <path d="M230.74,79.17c-.79,0-1-.49-1-1.14l.91.56Z" fill="#191919"/>
      <path d="M231.7,80.3c-.78,0-1-.49-1-1.13l.9.56Z" fill="#191919"/>
      <path d="M232.66,81.43c-.77,0-.95-.48-1-1.13l.9.56Z" fill="#191919"/>
      <path d="M221.88,161.39c0-.78.49-.95,1.13-1l-.56.9Z" fill="#191919"/>
      <path d="M220.75,162.36c0-.78.49-1,1.13-1-.19.3-.38.6-.56.9Z" fill="#191919"/>
      <path d="M237.81,87.37c-.78,0-1-.49-1-1.13l.91.55Z" fill="#242424"/>
      <path d="M219.62,163.32c0-.78.48-.95,1.13-1l-.57.9Z" fill="#191919"/>
      <path d="M238.77,88.5c-.78,0-1-.49-1-1.13l.91.55C238.74,88.12,238.76,88.31,238.77,88.5Z" fill="#242424"/>
      <path d="M239.74,89.63c-.78,0-1-.48-1-1.13l.91.56Z" fill="#242424"/>
      <path d="M240.7,90.77c-.78,0-.95-.49-1-1.14l.91.56C240.66,90.38,240.68,90.57,240.7,90.77Z" fill="#242424"/>
      <path d="M205.2,71.25a1.15,1.15,0,0,0,.64.93c2.78,1.59,5.57,3.16,8.36,4.75,3.81,2.24,7.61,4.5,11.44,6.71,1.51.87,3.09,1.4,4.62,0,1.8,1.4,3.05,3.31,4.52,5,5.93,6.81,11.79,13.7,17.69,20.54,1.41,1.65,1.43,1.61-.29,3.1Q237.75,124.62,223.34,137q-10.72,9.21-21.39,18.51c-1,.85-1.51.56-2.23-.28q-7-8.25-14.11-16.46-10-11.62-20-23.23c-5.68-6.6-11.31-13.23-17-19.83q-10-11.56-19.94-23.11c-2.67-3.09-5.29-6.22-8-9.3-.74-.84-.52-1.31.25-2q8.87-7.53,17.68-15.13c3-2.56,5.91-5.17,8.85-7.75l.54-.31c.66,1.49,2.28,1.75,3.46,2.49,2,1.23,4.09,2.24,6,3.53a2.71,2.71,0,0,0,.7.21,55.42,55.42,0,0,0,8,4.56c.86,1.21,2.32,1.53,3.49,2.27,2.26,1.43,4.67,2.63,7,3.92A112.91,112.91,0,0,0,187,61.05c5.2,3.43,10.75,6.27,16,9.57A2.88,2.88,0,0,0,205.2,71.25Z" fill="#4e4e4e"/>
      <path d="M230.26,83.62c-1.53,1.42-3.11.89-4.62,0-3.83-2.21-7.63-4.47-11.44-6.71A58.21,58.21,0,0,1,220,71.72c2.22,1.89,3.86,4.3,5.8,6.44C227.35,79.91,228.77,81.8,230.26,83.62Z" fill="#575757"/>
      <path d="M229,136.81a7.6,7.6,0,0,0-1.13,6l-.54.33c-1-2.69-.59-5.1,1-6.34Z" fill="#191919"/>
      <path d="M237.24,144.65c1.66-1.63,1.6-3.69,1.41-5.77l.54-.34c.9,2.41.19,5.6-1.36,6.35A.58.58,0,0,0,237.24,144.65Z" fill="#191919"/>
      <path d="M131.66,40.46c-.19.72-.19,1.42-1.09,1.47s-1.14-.52-1.16-1.19a1.14,1.14,0,0,1,1.06-1.33C131.32,39.34,131.28,40.16,131.66,40.46Z" fill="#2f2f2f"/>
      <path d="M231.83,134.55a5.8,5.8,0,0,1,5.58,1.56c-1.89-.15-3.58-1.44-5.57-1C231.84,135,231.83,134.75,231.83,134.55Z" fill="#353535"/>
      <path d="M231.83,134.55c0,.2,0,.41,0,.61-.88.66-2.13.7-2.84,1.65l-.62,0C229.05,135.36,230.45,135,231.83,134.55Z" fill="#242424"/>
      <path d="M227.33,143.18l.54-.33c.65.84,1.31,1.68,2,2.53l-.33.37A5,5,0,0,1,227.33,143.18Z" fill="#242424"/>
      <path d="M230.74,145.88a13.18,13.18,0,0,0,3.53.71,3.68,3.68,0,0,1-3.5,0Z" fill="#4e4e4e"/>
      <path d="M237.24,144.65a.58.58,0,0,1,.59.24c-.7.71-1.23,1.7-2.79,1.5Z" fill="#353535"/>
      <path d="M239.19,138.54l-.54.34c-.41-.65-1.11-1.2-.72-2.44Z" fill="#242424"/>
      <path d="M230.74,145.88l0,.67a1.81,1.81,0,0,1-1.27-.8l.33-.37A1,1,0,0,1,230.74,145.88Z" fill="#353535"/>
      <polygon points="234.8 146.51 234.75 146.42 234.86 146.42 234.8 146.51" fill="#4e4e4e"/>
    </g>
    <rect x="180.42" y="70.02" width="22.93" height="40.13" rx="2.73" transform="translate(-11.08 151.26) rotate(-41.92)" fill="#eaeee6" stroke="#6b6b6b" stroke-miterlimit="10" stroke-width="0.91"/>
    <path d="M179.4,90.85l10-18.23s-1.75-3.74-5-.86l-10.13,9.09s-2.15,2.26-.65,3.57S179.4,90.85,179.4,90.85Z" fill="#f7f7f9" stroke="#595b57" stroke-miterlimit="10" stroke-width="0.53"/>
    <polygon points="180.57 91.79 190.35 73.72 196.28 80.33 186.67 98.58 180.57 91.79" fill="#f7f7f9" stroke="#595b57" stroke-miterlimit="10" stroke-width="0.53"/>
    <polygon points="187.66 99.69 197.44 81.62 203.37 88.23 193.76 106.48 187.66 99.69" fill="#f7f7f9" stroke="#595b57" stroke-miterlimit="10" stroke-width="0.53"/>
    <path d="M204.85,89.89l-10.22,17.82s1.58,3.54,4.76.68l10.09-9.07s2.15-2.23.75-3.44S204.85,89.89,204.85,89.89Z" fill="#aa2d00" stroke="#595b57" stroke-miterlimit="10" stroke-width="0.53"/>
    <g>
      <g>
        <rect x="179.93" y="69.9" width="22.93" height="40.13" rx="2.73" transform="translate(-8.97 157.63) rotate(-43.84)" fill="#eaeee6" stroke="#6b6b6b" stroke-miterlimit="10" stroke-width="0.91"/>
        <path d="M179,91.14l9.34-18.55s-1.87-3.68-5-.7l-9.82,9.43s-2.07,2.33-.53,3.59S179,91.14,179,91.14Z" fill="#f7f7f9" stroke="#595b57" stroke-miterlimit="10" stroke-width="0.53"/>
        <polygon points="180.15 92.04 189.32 73.65 195.47 80.06 186.47 98.63 180.15 92.04" fill="#f7f7f9" stroke="#595b57" stroke-miterlimit="10" stroke-width="0.53"/>
        <polygon points="187.5 99.69 196.67 81.31 202.82 87.72 193.82 106.28 187.5 99.69" fill="#efff55" stroke="#595b57" stroke-miterlimit="10" stroke-width="0.53"/>
      </g>
      <path d="M204.35,89.33l-9.61,18.16s1.69,3.47,4.78.51l9.78-9.4s2.07-2.3.62-3.47S204.35,89.33,204.35,89.33Z" fill="#efff55" stroke="#595b57" stroke-miterlimit="10" stroke-width="0.53"/>
      <rect x="171.37" y="73.55" width="10.75" height="3.34" rx="1.67" transform="translate(-2.84 143.37) rotate(-43.84)" fill="#646862"/>
    </g>
    <g>
      <g>
        <rect x="179.97" y="70.04" width="22.93" height="40.13" rx="2.73" transform="translate(-10.12 154.45) rotate(-42.91)" fill="#eaeee6" stroke="#6b6b6b" stroke-miterlimit="10" stroke-width="0.91"/>
        <path d="M179,91.08l9.64-18.4s-1.81-3.7-5-.78l-10,9.27s-2.11,2.3-.59,3.58S179,91.08,179,91.08Z" fill="#f7f7f9" stroke="#595b57" stroke-miterlimit="10" stroke-width="0.53"/>
        <polygon points="180.15 92 189.62 73.77 195.67 80.27 186.37 98.69 180.15 92" fill="#f7f7f9" stroke="#595b57" stroke-miterlimit="10" stroke-width="0.53"/>
        <polygon points="187.38 99.77 196.84 81.54 202.89 88.05 193.59 106.46 187.38 99.77" fill="#efff55" stroke="#595b57" stroke-miterlimit="10" stroke-width="0.53"/>
      </g>
      <path d="M204.4,89.68l-9.91,18s1.63,3.5,4.77.59L209.19,99s2.11-2.28.69-3.46S204.4,89.68,204.4,89.68Z" fill="#efff55" stroke="#595b57" stroke-miterlimit="10" stroke-width="0.53"/>
      <rect x="171.65" y="73.45" width="10.75" height="3.34" rx="1.67" transform="translate(-3.78 140.63) rotate(-42.91)" fill="#646862"/>
    </g>
    <g>
      <rect x="179.91" y="69.75" width="22.93" height="40.13" rx="2.73" transform="translate(-9.12 156.84) rotate(-43.63)" fill="#eaeee6" stroke="#6b6b6b" stroke-miterlimit="10" stroke-width="0.91"/>
      <g>
        <path d="M178.92,90.94l9.41-18.52s-1.86-3.68-5-.71L173.5,81.1s-2.07,2.32-.54,3.59S178.92,90.94,178.92,90.94Z" fill="#8bc057" stroke="#595b57" stroke-miterlimit="10" stroke-width="0.53"/>
        <polygon points="180.12 91.85 189.35 73.5 195.48 79.93 186.41 98.46 180.12 91.85" fill="#8bc057" stroke="#595b57" stroke-miterlimit="10" stroke-width="0.53"/>
        <polygon points="187.44 99.53 196.68 81.18 202.81 87.61 193.74 106.14 187.44 99.53" fill="#8bc057" stroke="#595b57" stroke-miterlimit="10" stroke-width="0.53"/>
        <path d="M204.33,89.23l-9.68,18.12s1.68,3.48,4.78.53l9.81-9.36s2.08-2.3.64-3.47S204.33,89.23,204.33,89.23Z" fill="#8bc057" stroke="#595b57" stroke-miterlimit="10" stroke-width="0.53"/>
      </g>
    </g>
    <polygon points="621.74 37.46 619.25 48.36 627.88 57.33 632 53.37 638.32 62.47 640.43 56.79 650.99 58.88 642.76 46.63 638.83 49.33 632.32 39.73 627.94 43.58 621.74 37.46" fill="#c3d56a"/>
    <polygon points="636.05 -3.32 629 8.79 635.96 22.75 642.37 19.55 646.53 32.8 651.17 26.8 663.03 33.26 657.77 15.51 652.05 17.27 647.86 3.35 641.18 6.33 636.05 -3.32" fill="#c3d56a"/>
    <polygon points="808.47 10.38 795.7 3.19 781.21 10.68 784.65 17.33 770.86 21.89 777.21 26.65 770.65 39.14 789.12 33.37 787.19 27.42 801.67 22.83 798.47 15.88 808.47 10.38" fill="#c3d56a"/>
    <polygon points="817.16 82.07 809.97 70.82 795.12 70.64 795.03 77.46 782 75.21 785.07 81.76 774.43 88.99 791.75 92.26 792.75 86.65 806.36 89.17 806.76 82.21 817.16 82.07" fill="#c3d56a"/>
    <polygon points="816.23 44.44 807.34 36.42 794.45 39.79 796 45.71 784.19 46.87 788.4 51.8 780.92 60.58 796.68 59.29 796.21 54.2 808.58 53.14 807.27 47.03 816.23 44.44" fill="#c3d56a"/>
    <polygon points="770.25 -5.92 758.95 -12.28 746.13 -5.65 749.17 0.23 736.97 4.26 742.59 8.48 736.78 19.53 753.12 14.42 751.42 9.16 764.24 5.1 761.4 -1.05 770.25 -5.92" fill="#c3d56a"/>
    <polygon points="669.91 -30.09 660.06 -21.14 662.37 -6.51 669.09 -7.57 669.06 5.62 674.99 1.51 683.87 10.75 684.19 -6.83 678.51 -6.87 678.7 -20.67 671.8 -19.89 669.91 -30.09" fill="#c3d56a"/>
    <polygon points="804.16 116.05 797.63 105.83 784.15 105.67 784.07 111.86 772.24 109.82 775.02 115.76 765.37 122.33 781.09 125.3 782 120.2 794.36 122.49 794.72 116.18 804.16 116.05" fill="#c3d56a"/>
    <polygon points="716.61 -29.44 705.35 -25.59 702.05 -12.76 707.95 -11.24 703.25 -0.43 709.56 -1.7 713.58 9.04 720.07 -5.28 715.43 -7.33 720.48 -18.59 714.54 -20.4 716.61 -29.44" fill="#c3d56a"/>
  </g>
</svg>
