<?xml version="1.0" encoding="utf-8"?>
<!-- Generator: Adobe Illustrator 23.0.2, SVG Export Plug-In . SVG Version: 6.00 Build 0)  -->
<svg version="1.1" id="Layer_1" xmlns="http://www.w3.org/2000/svg" xmlns:xlink="http://www.w3.org/1999/xlink" x="0px" y="0px"
	 viewBox="0 0 512 512" style="enable-background:new 0 0 512 512;" xml:space="preserve">
<style type="text/css">
	.st0{fill:#231F20;}
	.st1{fill:#B7CD11;}
	.st2{fill:none;}
	.st3{fill:#FE6900;}
	.st4{font-family:'4000-Heavy';}
	.st5{font-size:49.5569px;}
</style>
<path class="st0" d="M495.5,379.9H16.4c-9.1,0-16.5-7.4-16.5-16.5v-16.5c0-9.1,7.4-16.5,16.5-16.5h479.1c9.1,0,16.5,7.4,16.5,16.5
	v16.5C512,372.5,504.6,379.9,495.5,379.9z M16.4,346.9v16.5h479.1l0-16.5H16.4z"/>
<path class="st0" d="M495.5,512H16.4V371.6h16.5v123.9h446V371.6h16.5V512z"/>
<path class="st0" d="M66,148.7h16.5v190H66V148.7z"/>
<path class="st0" d="M32.9,148.7h16.5v190H32.9V148.7z"/>
<path class="st0" d="M462.4,148.7H479v190h-16.5V148.7z"/>
<path class="st0" d="M429.4,148.7h16.5v190h-16.5V148.7z"/>
<path class="st0" d="M256,181.7c-23.4,0-45.4-8.8-62.3-24.8H-0.1V49.6c0-13.7,11.1-24.8,24.8-24.8h169C210.6,8.8,232.6,0,256,0
	s45.4,8.8,62.3,24.8h169c13.7,0,24.8,11.1,24.8,24.8v107.4H318.3C301.3,172.9,279.3,181.7,256,181.7z M16.4,140.4h184.1l2.4,2.5
	c14.1,14.4,32.9,22.3,53,22.3s38.9-7.9,53-22.3l2.4-2.5h184.1V49.6c0-4.5-3.7-8.3-8.3-8.3H311.4l-2.4-2.5
	c-14.1-14.4-32.9-22.3-53-22.3s-38.9,7.9-53,22.3l-2.4,2.5H24.7c-4.6,0-8.3,3.7-8.3,8.3V140.4z"/>
<g>
	<polygon class="st1" points="254.7,67 271.3,68 265.2,80.4 272.7,80.9 258.2,99.2 266.1,99.7 251.4,120.3 252.3,105.5 244.5,105 
		252.9,86.4 245.6,86 	"/>
	<path class="st0" d="M284.5,54.5c-11.4-9.2-30.9-10.6-46.3-3.5c-15.6,7.3-24.5,21.7-24.9,40.6c0,0,0,0.1,0,0.1h-8.4l12.7,19.2
		l12.7-19.2h-7.9c0.5-19.5,10.9-28.4,19.6-32.4c12.2-5.7,28-4.7,36.7,2.3c2,1.6,4.9,1.3,6.5-0.7C286.8,59,286.5,56.1,284.5,54.5
		L284.5,54.5z"/>
	<path class="st0" d="M311.7,91.7L299,72.6l-12.7,19.2h7.9c-0.5,19.5-10.9,28.4-19.6,32.4c-12.2,5.7-28,4.7-36.7-2.3
		c-2-1.6-4.9-1.3-6.5,0.7c-1.6,2-1.3,4.9,0.7,6.5c6.6,5.3,15.8,8,25.4,8c7.1,0,14.4-1.5,20.9-4.5c15.6-7.3,24.5-21.7,24.9-40.6
		c0,0,0-0.1,0-0.1L311.7,91.7L311.7,91.7L311.7,91.7z"/>
	<path class="st0" d="M190.9,68.6c0-1-0.4-1.6-1.5-1.6h-1.3c-0.8,0-1.5,0.4-1.9,1.9l-13.8,48.8c-1,3.2-1.8,3.9-3,3.9
		c-1.2,0-2.3-0.6-3.2-3.9l-13.8-48.8c-0.4-1.5-1.2-1.9-1.9-1.9h-1.1c-1.1,0-1.7,0.8-1.7,1.8c0,0.2,0,0.5,0.1,0.9l14.2,49.2
		c1.6,5.7,4.5,6.8,7.6,6.8c3.1,0,5.7-1.1,7.4-6.8l14.2-49.2C190.9,69.4,190.9,68.9,190.9,68.6L190.9,68.6z M331.5,123V46.7
		c0-1.1-0.8-2.1-1.8-2.1h-1.1c-1.1,0-1.8,1-1.8,2.1V123c0,1.1,0.8,2.1,1.8,2.1h1.1C330.7,125.1,331.5,124.1,331.5,123L331.5,123z
		 M376.9,123.7V123c0-1-0.6-1.5-2.3-1.5h-5.2c-4.8,0-7.5-1-7.5-7.5V71.4h12.9c1.2,0,2.1-0.6,2.1-1.7v-1.1c0-1.1-0.9-1.6-2.1-1.6H362
		V55.8c0-1.1-0.6-2.1-1.7-2.1h-1.2c-1.2,0-1.8,1-1.8,2.1V67h-10.7c-1.2,0-2.1,0.5-2.1,1.6v1.1c0,1.1,0.9,1.7,2.1,1.7h10.7V114
		c0,9.3,4.5,11.7,12.2,11.7c1.8,0,4-0.1,5.6-0.3C376.6,125.2,376.9,124.5,376.9,123.7L376.9,123.7z"/>
</g>
<rect x="231.7" y="422.8" class="st2" width="165.5" height="37.9"/>
<text transform="matrix(1 0 0 1 231.6504 458.2715)" class="st3 st4 st5">PICK UP</text>
<path class="st3" d="M140.6,468.2h-1.5c0,0,0.7-27.7-23.6-19.9l-0.7-1.1c0,0,24.7-15.9,26.9-43.5h1.8c7.9,13.6,22.2,20.4,34.7,17.3
	c9.9-2.4,15.3-10.3,17-12.9h0.7c0.8,6.5,3.2,17.9,11.1,29.5c4.6,6.7,9.6,11.5,13.6,14.8c0,0-4.1,0-8.9,5.5
	C211.8,457.9,169.3,393.7,140.6,468.2z"/>
</svg>
