<?xml version="1.0" encoding="utf-8"?>
<!-- Generator: Adobe Illustrator 23.0.2, SVG Export Plug-In . SVG Version: 6.00 Build 0)  -->
<svg version="1.1" xmlns="http://www.w3.org/2000/svg" xmlns:xlink="http://www.w3.org/1999/xlink" x="0px" y="0px"
	 viewBox="0 0 512 512" style="enable-background:new 0 0 512 512;" xml:space="preserve">
<style type="text/css">
	.st0{fill:#FFFFFF;}
	.st1{fill:#231F20;}
	.st2{fill:none;stroke:#231F20;stroke-width:8;stroke-miterlimit:10;}
	.st3{fill:#B7CD11;}
	.st4{fill:none;stroke:#231F20;stroke-width:4;stroke-miterlimit:10;}
</style>
<g id="Layer_2">
</g>
<g id="Layer_1">
	<g>
		<path class="st0" d="M310.7,409c-1.2,0-5.5-0.3-8.9-3.7c-2.4-2.4-3.7-5.6-3.7-8.9V59.5c0-7,5.7-12.6,12.6-12.6h161.7
			c7,0,12.6,5.7,12.6,12.6v336.9c0,7-5.7,12.6-12.6,12.6H310.7z"/>
		<path class="st1" d="M472.4,51.8c4.2,0,7.6,3.4,7.6,7.6v336.9c0,4.2-3.4,7.6-7.6,7.6h-82.9h-78.8c-0.5,0-3.3-0.1-5.4-2.2
			c-1.4-1.4-2.2-3.4-2.2-5.4V59.5c0-4.2,3.4-7.6,7.6-7.6H472.4 M472.4,41.8H310.7c-9.7,0-17.6,7.9-17.6,17.6v336.9
			c0,4.9,2,9.3,5.2,12.5c5,5,11.3,5.2,12.5,5.2c26.3,0,52.5,0,78.8,0c27.6,0,55.3,0,82.9,0c9.7,0,17.6-7.9,17.6-17.6V59.5
			C490,49.7,482.1,41.8,472.4,41.8L472.4,41.8z"/>
	</g>
	<path class="st2" d="M209.8,83.6H64.6c-23.7,0-42.9,19.2-42.9,42.9v140.2c0,23.7,19.2,42.9,42.9,42.9h145.2
		c23.7,0,42.9-19.2,42.9-42.9V126.4C252.7,102.8,233.5,83.6,209.8,83.6z"/>
	<g>
		<polygon class="st3" points="131,180.5 142.1,181.2 138,189.5 143.1,189.9 133.3,202.2 138.6,202.5 128.8,216.3 129.4,206.4 
			124.1,206 129.8,193.6 124.9,193.3 		"/>
		<path class="st1" d="M151,172.2c-7.7-6.2-20.7-7.1-31.1-2.3c-10.5,4.9-16.4,14.6-16.7,27.3c0,0,0,0,0,0.1h-5.6l8.5,12.9l8.5-12.9
			h-5.3c0.3-13.1,7.3-19,13.1-21.7c8.2-3.8,18.8-3.1,24.6,1.5c1.3,1.1,3.3,0.9,4.4-0.5C152.5,175.2,152.3,173.3,151,172.2L151,172.2
			z"/>
		<path class="st1" d="M169.2,197.1l-8.5-12.9l-8.5,12.9h5.3c-0.3,13.1-7.3,19-13.1,21.7c-8.2,3.8-18.8,3.1-24.6-1.5
			c-1.3-1.1-3.3-0.9-4.4,0.5c-1.1,1.3-0.9,3.3,0.5,4.4c4.4,3.5,10.6,5.4,17,5.4c4.8,0,9.7-1,14.1-3c10.5-4.9,16.4-14.6,16.7-27.3
			c0,0,0,0,0-0.1L169.2,197.1L169.2,197.1L169.2,197.1z"/>
		<path class="st1" d="M88.2,181.6c0-0.7-0.3-1.1-1-1.1h-0.9c-0.5,0-1,0.3-1.3,1.3l-9.3,32.7c-0.7,2.2-1.2,2.6-2,2.6
			c-0.8,0-1.5-0.4-2.2-2.6l-9.3-32.7c-0.3-1-0.8-1.3-1.3-1.3h-0.7c-0.7,0-1.2,0.5-1.2,1.2c0,0.1,0,0.4,0.1,0.6l9.5,33
			c1.1,3.8,3,4.6,5.1,4.6c2.1,0,3.8-0.7,4.9-4.6l9.5-33C88.2,182.1,88.2,181.8,88.2,181.6L88.2,181.6z M182.5,218.1V167
			c0-0.7-0.5-1.4-1.2-1.4h-0.7c-0.7,0-1.2,0.7-1.2,1.4v51.2c0,0.7,0.5,1.4,1.2,1.4h0.7C182,219.5,182.5,218.9,182.5,218.1
			L182.5,218.1z M213,218.6v-0.4c0-0.7-0.4-1-1.5-1H208c-3.2,0-5-0.7-5-5v-28.6h8.6c0.8,0,1.4-0.4,1.4-1.2v-0.7
			c0-0.7-0.6-1.1-1.4-1.1h-8.6v-7.5c0-0.7-0.4-1.4-1.2-1.4H201c-0.8,0-1.2,0.7-1.2,1.4v7.5h-7.2c-0.8,0-1.4,0.4-1.4,1.1v0.7
			c0,0.7,0.6,1.2,1.4,1.2h7.2v28.6c0,6.2,3,7.8,8.2,7.8c1.2,0,2.7-0.1,3.8-0.2C212.7,219.6,213,219.2,213,218.6L213,218.6z"/>
	</g>
	<polygon class="st3" points="29.5,47 37.7,37.7 42.2,47 46,42.8 50.1,59.8 54,55.4 59.4,73.5 51.1,66.1 47.2,70.5 40.1,57 
		36.5,61.1 	"/>
	<g>
		<path class="st0" d="M346,327.2c-6.7,0-12.2-5.5-12.2-12.2V147.5c0-6.7,5.5-12.2,12.2-12.2h90.8c6.7,0,12.2,5.5,12.2,12.2V315
			c0,6.7-5.5,12.2-12.2,12.2H346z"/>
		<path class="st1" d="M436.9,137.8c5.4,0,9.7,4.4,9.7,9.7V315c0,5.4-4.4,9.7-9.7,9.7H346c-5.4,0-9.7-4.4-9.7-9.7V147.5
			c0-5.4,4.4-9.7,9.7-9.7H436.9 M436.9,132.8H346c-8.1,0-14.7,6.6-14.7,14.7V315c0,8.1,6.6,14.7,14.7,14.7h90.8
			c8.1,0,14.7-6.6,14.7-14.7V147.5C451.6,139.3,445,132.8,436.9,132.8L436.9,132.8z"/>
	</g>
	<g>
		<path class="st1" d="M414.8,135.6h-46.7v-23.1c0-4,3.2-7.2,7.2-7.2h32.3c4,0,7.2,3.2,7.2,7.2V135.6z"/>
	</g>
	<polygon class="st3" points="256,45.5 246.8,37.1 243.3,46.9 239.2,43.1 236.8,60.4 232.5,56.5 229.1,75 236.6,66.8 240.9,70.8 
		246.5,56.6 250.5,60.3 	"/>
	<polygon class="st3" points="383.4,179.3 417.9,181.4 405.2,207.2 420.9,208.2 390.7,246.4 407,247.4 376.6,290.1 378.5,259.3 
		362.2,258.3 379.7,219.7 364.6,218.8 	"/>
	<path class="st4" d="M392.3,412.4c-18.4,8.2-48.3,19-86.6,21.2c-33.9,1.9-94.8-1.6-102.1-22.9c-7-20.4,40-43.6,32-55.6
		c-5.5-8.2-33.3-5.8-54.6,1.8c-43,15.2-49.1,47.1-68,45c-20.7-2.3-45-44-24.7-66.2c8.9-9.8,31.9-1.5,41.2-13.2
		c3.9-4.9,3.8-10.8,3.1-15"/>
	<g>
		<path class="st1" d="M427.2,62.5h-72.2c-4.1,0-7.5-3.3-7.5-7.5v-4.5h87.1v4.5C434.6,59.2,431.3,62.5,427.2,62.5z"/>
	</g>
	<g>
		<circle class="st0" cx="417.7" cy="55.5" r="2.7"/>
	</g>
	<path class="st0" d="M406,58.2h-29.9c-1.4,0-2.5-1.1-2.5-2.5v-0.4c0-1.4,1.1-2.5,2.5-2.5H406c1.4,0,2.5,1.1,2.5,2.5v0.4
		C408.5,57.1,407.4,58.2,406,58.2z"/>
</g>
</svg>
