<?xml version="1.0" encoding="utf-8"?>
<!-- Generator: Adobe Illustrator 23.0.2, SVG Export Plug-In . SVG Version: 6.00 Build 0)  -->
<svg version="1.1" id="Layer_1" xmlns="http://www.w3.org/2000/svg" xmlns:xlink="http://www.w3.org/1999/xlink" x="0px" y="0px"
	 viewBox="0 0 512 512" style="enable-background:new 0 0 512 512;" xml:space="preserve">
<style type="text/css">
	.st0{fill:#231F20;}
	.st1{fill:#FFFFFF;}
	.st2{fill:none;stroke:#231F20;stroke-width:18;stroke-miterlimit:10;}
	.st3{fill:none;stroke:#231F20;stroke-width:6;stroke-miterlimit:10;}
	.st4{fill:#B7CD11;}
</style>
<path class="st0" d="M506.2,412.5H6.1c-3.4,0-6.1-2.7-6.1-6.1v-8.7c0-3.4,2.7-6.1,6.1-6.1h500.1c3.4,0,6.1,2.7,6.1,6.1v8.7
	C512.3,409.8,509.6,412.5,506.2,412.5z"/>
<path class="st1" d="M283.9,406.6h-54.5c-1.5,0-2.6-1.2-2.6-2.6v-3.8c0-1.5,1.2-2.6,2.6-2.6h54.5c1.5,0,2.6,1.2,2.6,2.6v3.8
	C286.5,405.4,285.3,406.6,283.9,406.6z"/>
<path class="st2" d="M454,386H57.3c-0.7,0-1.3-0.6-1.3-1.3V107.3c0-0.7,0.6-1.3,1.3-1.3H454c0.7,0,1.3,0.6,1.3,1.3v277.4
	C455.3,385.4,454.7,386,454,386z"/>
<path class="st3" d="M307,174.4H206.5c-16.4,0-29.6,13.3-29.6,29.6v97c0,16.4,13.3,29.6,29.6,29.6H307c16.4,0,29.6-13.3,29.6-29.6
	v-97C336.6,187.6,323.4,174.4,307,174.4z"/>
<g>
	<polygon class="st4" points="252.4,241.4 260.1,241.9 257.3,247.7 260.8,247.9 254.1,256.4 257.7,256.6 250.9,266.2 251.3,259.3 
		247.7,259.1 251.6,250.5 248.2,250.3 	"/>
	<path class="st0" d="M266.3,235.7c-5.3-4.3-14.3-4.9-21.5-1.6c-7.2,3.4-11.4,10.1-11.6,18.9c0,0,0,0,0,0.1h-3.9l5.9,8.9l5.9-8.9
		h-3.7c0.2-9,5.1-13.2,9.1-15c5.7-2.6,13-2.2,17,1.1c0.9,0.7,2.3,0.6,3-0.3C267.3,237.8,267.2,236.4,266.3,235.7L266.3,235.7z"/>
	<path class="st0" d="M278.9,252.9L273,244l-5.9,8.9h3.7c-0.2,9-5.1,13.2-9.1,15c-5.7,2.6-13,2.2-17-1.1c-0.9-0.7-2.3-0.6-3,0.3
		c-0.7,0.9-0.6,2.3,0.3,3c3,2.5,7.3,3.7,11.8,3.7c3.3,0,6.7-0.7,9.7-2.1c7.2-3.4,11.4-10.1,11.6-18.9c0,0,0,0,0-0.1L278.9,252.9
		L278.9,252.9L278.9,252.9z"/>
	<path class="st0" d="M222.8,242.2c0-0.5-0.2-0.8-0.7-0.8h-0.6c-0.4,0-0.7,0.2-0.9,0.9l-6.4,22.6c-0.5,1.5-0.9,1.8-1.4,1.8
		c-0.6,0-1.1-0.3-1.5-1.8l-6.4-22.6c-0.2-0.7-0.6-0.9-0.9-0.9h-0.5c-0.5,0-0.8,0.4-0.8,0.9c0,0.1,0,0.3,0.1,0.4l6.6,22.8
		c0.8,2.7,2.1,3.2,3.5,3.2c1.5,0,2.7-0.5,3.4-3.2l6.6-22.8C222.8,242.5,222.8,242.3,222.8,242.2L222.8,242.2z M288.1,267.4V232
		c0-0.5-0.4-1-0.9-1h-0.5c-0.5,0-0.9,0.5-0.9,1v35.4c0,0.5,0.4,1,0.9,1h0.5C287.7,268.4,288.1,268,288.1,267.4L288.1,267.4z
		 M309.1,267.8v-0.3c0-0.5-0.3-0.7-1.1-0.7h-2.4c-2.2,0-3.5-0.5-3.5-3.5v-19.8h6c0.6,0,1-0.3,1-0.8v-0.5c0-0.5-0.4-0.8-1-0.8h-6
		v-5.2c0-0.5-0.3-1-0.8-1h-0.6c-0.6,0-0.9,0.5-0.9,1v5.2h-5c-0.6,0-1,0.3-1,0.8v0.5c0,0.5,0.4,0.8,1,0.8h5v19.8
		c0,4.3,2.1,5.4,5.7,5.4c0.9,0,1.9-0.1,2.6-0.2C309,268.5,309.1,268.2,309.1,267.8L309.1,267.8z"/>
</g>
<g>
	<path class="st0" d="M312.7,293.1l-2.6-1 M310,292l-12-4.8c-0.5-0.2-1-0.1-1.4,0.3c-0.4,0.4-0.5,0.9-0.3,1.4l9.5,23.9
		c0.2,0.4,0.6,0.8,1.1,0.8c0.5,0,0.9-0.2,1.2-0.6l3.1-5.4l7.5,7.5c0.2,0.2,0.6,0.4,0.9,0.4c0.3,0,0.7-0.1,0.9-0.4l3.7-3.7
		c0.5-0.5,0.5-1.3,0-1.8l-7.5-7.5l5.4-3.1c0.4-0.2,0.7-0.7,0.6-1.2c0-0.5-0.3-0.9-0.8-1.1l-9.3-3.7 M311.5,295.3l7.1,2.8l-4.5,2.6
		c-0.3,0.2-0.6,0.5-0.6,0.9c-0.1,0.4,0.1,0.8,0.4,1.1l7.8,7.8l-1.9,1.9l-7.8-7.8c-0.2-0.2-0.6-0.4-0.9-0.4c-0.1,0-0.1,0-0.2,0
		c-0.4,0.1-0.7,0.3-0.9,0.6l-2.6,4.5l-7.5-18.8l9.1,3.6 M308.9,294.3l2.6,1"/>
	<path class="st0" d="M292.4,281.4c-0.5-0.5-1.3-0.5-1.8,0c-0.5,0.5-0.5,1.3,0,1.8l2.8,2.8c0.2,0.2,0.6,0.4,0.9,0.4
		c0.3,0,0.6-0.1,0.9-0.4c0.5-0.5,0.5-1.3,0-1.8L292.4,281.4z"/>
	<path class="st0" d="M293.3,290.2c0-0.7-0.6-1.3-1.3-1.3h-4c-0.7,0-1.3,0.6-1.3,1.3c0,0.7,0.6,1.3,1.3,1.3h4
		C292.8,291.4,293.3,290.9,293.3,290.2z"/>
	<path class="st0" d="M292.8,294.1l-2.8,2.8c-0.5,0.5-0.5,1.3,0,1.8c0.2,0.2,0.6,0.4,0.9,0.4c0.3,0,0.6-0.1,0.9-0.4l2.8-2.8
		c0.5-0.5,0.5-1.3,0-1.8C294.1,293.6,293.3,293.6,292.8,294.1z"/>
	<path class="st0" d="M299.3,284.2c0.7,0,1.3-0.6,1.3-1.3v-4c0-0.7-0.6-1.3-1.3-1.3c-0.7,0-1.3,0.6-1.3,1.3v4
		C298,283.6,298.6,284.2,299.3,284.2z"/>
	<path class="st0" d="M304.1,285.8c0.3,0,0.6-0.1,0.9-0.4l2.8-2.8c0.5-0.5,0.5-1.3,0-1.8c-0.5-0.5-1.3-0.5-1.8,0l-2.8,2.8
		c-0.5,0.5-0.5,1.3,0,1.8C303.5,285.7,303.8,285.8,304.1,285.8z"/>
</g>
</svg>
